%TF.GenerationSoftware,KiCad,Pcbnew,9.0.2*%
%TF.CreationDate,2025-06-28T14:33:53-07:00*%
%TF.ProjectId,untitled,756e7469-746c-4656-942e-6b696361645f,rev?*%
%TF.SameCoordinates,Original*%
%TF.FileFunction,Plated,1,2,PTH,Drill*%
%TF.FilePolarity,Positive*%
%FSLAX46Y46*%
G04 Gerber Fmt 4.6, Leading zero omitted, Abs format (unit mm)*
G04 Created by KiCad (PCBNEW 9.0.2) date 2025-06-28 14:33:53*
%MOMM*%
%LPD*%
G01*
G04 APERTURE LIST*
%TA.AperFunction,ComponentDrill*%
%ADD10C,0.800000*%
%TD*%
%TA.AperFunction,ComponentDrill*%
%ADD11C,1.092200*%
%TD*%
%TA.AperFunction,ComponentDrill*%
%ADD12C,1.500000*%
%TD*%
G04 APERTURE END LIST*
D10*
%TO.C,D1*%
X109855000Y-72390000D03*
X109855000Y-80010000D03*
%TO.C,D4*%
X109855000Y-91440000D03*
X109855000Y-99060000D03*
%TO.C,D7*%
X109855000Y-110490000D03*
X109855000Y-118110000D03*
%TO.C,D2*%
X128905000Y-72390000D03*
X128905000Y-80010000D03*
%TO.C,D5*%
X128905000Y-91440000D03*
X128905000Y-99060000D03*
%TO.C,D8*%
X128905000Y-110490000D03*
X128905000Y-118110000D03*
%TO.C,D3*%
X147955000Y-72390000D03*
X147955000Y-80010000D03*
%TO.C,D6*%
X147955000Y-91440000D03*
X147955000Y-99060000D03*
%TO.C,D9*%
X147955000Y-110490000D03*
X147955000Y-118110000D03*
D11*
%TO.C,U1*%
X163830000Y-83661250D03*
X163830000Y-86201250D03*
X163830000Y-88741250D03*
X163830000Y-91281250D03*
X163830000Y-93821250D03*
X163830000Y-96361250D03*
X163830000Y-98901250D03*
X163830000Y-101441250D03*
X163830000Y-103981250D03*
X163830000Y-106521250D03*
X163830000Y-109061250D03*
X163830000Y-111601250D03*
X179070000Y-83661250D03*
X179070000Y-86201250D03*
X179070000Y-88741250D03*
X179070000Y-91281250D03*
X179070000Y-93821250D03*
X179070000Y-96361250D03*
X179070000Y-98901250D03*
X179070000Y-101441250D03*
X179070000Y-103981250D03*
X179070000Y-106521250D03*
X179070000Y-109061250D03*
X179070000Y-111601250D03*
D12*
%TO.C,S1*%
X96520000Y-73660000D03*
%TO.C,S4*%
X96520000Y-92710000D03*
%TO.C,S7*%
X96520000Y-111760000D03*
%TO.C,S1*%
X102870000Y-71120000D03*
%TO.C,S4*%
X102870000Y-90170000D03*
%TO.C,S7*%
X102870000Y-109220000D03*
%TO.C,S2*%
X115570000Y-73660000D03*
%TO.C,S5*%
X115570000Y-92710000D03*
%TO.C,S8*%
X115570000Y-111760000D03*
%TO.C,S2*%
X121920000Y-71120000D03*
%TO.C,S5*%
X121920000Y-90170000D03*
%TO.C,S8*%
X121920000Y-109220000D03*
%TO.C,S3*%
X134620000Y-73660000D03*
%TO.C,S6*%
X134620000Y-92710000D03*
%TO.C,S9*%
X134620000Y-111760000D03*
%TO.C,S3*%
X140970000Y-71120000D03*
%TO.C,S6*%
X140970000Y-90170000D03*
%TO.C,S9*%
X140970000Y-109220000D03*
M02*
