%TF.GenerationSoftware,KiCad,Pcbnew,9.0.2*%
%TF.CreationDate,2025-06-28T14:34:15-07:00*%
%TF.ProjectId,untitled,756e7469-746c-4656-942e-6b696361645f,rev?*%
%TF.SameCoordinates,Original*%
%TF.FileFunction,Legend,Bot*%
%TF.FilePolarity,Positive*%
%FSLAX46Y46*%
G04 Gerber Fmt 4.6, Leading zero omitted, Abs format (unit mm)*
G04 Created by KiCad (PCBNEW 9.0.2) date 2025-06-28 14:34:15*
%MOMM*%
%LPD*%
G01*
G04 APERTURE LIST*
%ADD10C,0.150000*%
%ADD11C,0.200000*%
%ADD12C,0.100000*%
%ADD13R,1.752600X1.752600*%
%ADD14C,1.752600*%
G04 APERTURE END LIST*
D10*
X177234809Y-109004497D02*
X177120523Y-109042592D01*
X177120523Y-109042592D02*
X177082428Y-109080688D01*
X177082428Y-109080688D02*
X177044332Y-109156878D01*
X177044332Y-109156878D02*
X177044332Y-109271164D01*
X177044332Y-109271164D02*
X177082428Y-109347354D01*
X177082428Y-109347354D02*
X177120523Y-109385450D01*
X177120523Y-109385450D02*
X177196713Y-109423545D01*
X177196713Y-109423545D02*
X177501475Y-109423545D01*
X177501475Y-109423545D02*
X177501475Y-108623545D01*
X177501475Y-108623545D02*
X177234809Y-108623545D01*
X177234809Y-108623545D02*
X177158618Y-108661640D01*
X177158618Y-108661640D02*
X177120523Y-108699735D01*
X177120523Y-108699735D02*
X177082428Y-108775926D01*
X177082428Y-108775926D02*
X177082428Y-108852116D01*
X177082428Y-108852116D02*
X177120523Y-108928307D01*
X177120523Y-108928307D02*
X177158618Y-108966402D01*
X177158618Y-108966402D02*
X177234809Y-109004497D01*
X177234809Y-109004497D02*
X177501475Y-109004497D01*
X176739571Y-108699735D02*
X176701475Y-108661640D01*
X176701475Y-108661640D02*
X176625285Y-108623545D01*
X176625285Y-108623545D02*
X176434809Y-108623545D01*
X176434809Y-108623545D02*
X176358618Y-108661640D01*
X176358618Y-108661640D02*
X176320523Y-108699735D01*
X176320523Y-108699735D02*
X176282428Y-108775926D01*
X176282428Y-108775926D02*
X176282428Y-108852116D01*
X176282428Y-108852116D02*
X176320523Y-108966402D01*
X176320523Y-108966402D02*
X176777666Y-109423545D01*
X176777666Y-109423545D02*
X176282428Y-109423545D01*
X166598523Y-88341640D02*
X166674713Y-88303545D01*
X166674713Y-88303545D02*
X166788999Y-88303545D01*
X166788999Y-88303545D02*
X166903285Y-88341640D01*
X166903285Y-88341640D02*
X166979475Y-88417830D01*
X166979475Y-88417830D02*
X167017570Y-88494021D01*
X167017570Y-88494021D02*
X167055666Y-88646402D01*
X167055666Y-88646402D02*
X167055666Y-88760688D01*
X167055666Y-88760688D02*
X167017570Y-88913069D01*
X167017570Y-88913069D02*
X166979475Y-88989259D01*
X166979475Y-88989259D02*
X166903285Y-89065450D01*
X166903285Y-89065450D02*
X166788999Y-89103545D01*
X166788999Y-89103545D02*
X166712808Y-89103545D01*
X166712808Y-89103545D02*
X166598523Y-89065450D01*
X166598523Y-89065450D02*
X166560427Y-89027354D01*
X166560427Y-89027354D02*
X166560427Y-88760688D01*
X166560427Y-88760688D02*
X166712808Y-88760688D01*
X166217570Y-89103545D02*
X166217570Y-88303545D01*
X166217570Y-88303545D02*
X165760427Y-89103545D01*
X165760427Y-89103545D02*
X165760427Y-88303545D01*
X165379475Y-89103545D02*
X165379475Y-88303545D01*
X165379475Y-88303545D02*
X165188999Y-88303545D01*
X165188999Y-88303545D02*
X165074713Y-88341640D01*
X165074713Y-88341640D02*
X164998523Y-88417830D01*
X164998523Y-88417830D02*
X164960428Y-88494021D01*
X164960428Y-88494021D02*
X164922332Y-88646402D01*
X164922332Y-88646402D02*
X164922332Y-88760688D01*
X164922332Y-88760688D02*
X164960428Y-88913069D01*
X164960428Y-88913069D02*
X164998523Y-88989259D01*
X164998523Y-88989259D02*
X165074713Y-89065450D01*
X165074713Y-89065450D02*
X165188999Y-89103545D01*
X165188999Y-89103545D02*
X165379475Y-89103545D01*
X166579475Y-94183545D02*
X166579475Y-93383545D01*
X166579475Y-93383545D02*
X166388999Y-93383545D01*
X166388999Y-93383545D02*
X166274713Y-93421640D01*
X166274713Y-93421640D02*
X166198523Y-93497830D01*
X166198523Y-93497830D02*
X166160428Y-93574021D01*
X166160428Y-93574021D02*
X166122332Y-93726402D01*
X166122332Y-93726402D02*
X166122332Y-93840688D01*
X166122332Y-93840688D02*
X166160428Y-93993069D01*
X166160428Y-93993069D02*
X166198523Y-94069259D01*
X166198523Y-94069259D02*
X166274713Y-94145450D01*
X166274713Y-94145450D02*
X166388999Y-94183545D01*
X166388999Y-94183545D02*
X166579475Y-94183545D01*
X165360428Y-94183545D02*
X165817571Y-94183545D01*
X165588999Y-94183545D02*
X165588999Y-93383545D01*
X165588999Y-93383545D02*
X165665190Y-93497830D01*
X165665190Y-93497830D02*
X165741380Y-93574021D01*
X165741380Y-93574021D02*
X165817571Y-93612116D01*
X166579475Y-96723545D02*
X166579475Y-95923545D01*
X166579475Y-95923545D02*
X166388999Y-95923545D01*
X166388999Y-95923545D02*
X166274713Y-95961640D01*
X166274713Y-95961640D02*
X166198523Y-96037830D01*
X166198523Y-96037830D02*
X166160428Y-96114021D01*
X166160428Y-96114021D02*
X166122332Y-96266402D01*
X166122332Y-96266402D02*
X166122332Y-96380688D01*
X166122332Y-96380688D02*
X166160428Y-96533069D01*
X166160428Y-96533069D02*
X166198523Y-96609259D01*
X166198523Y-96609259D02*
X166274713Y-96685450D01*
X166274713Y-96685450D02*
X166388999Y-96723545D01*
X166388999Y-96723545D02*
X166579475Y-96723545D01*
X165627094Y-95923545D02*
X165550904Y-95923545D01*
X165550904Y-95923545D02*
X165474713Y-95961640D01*
X165474713Y-95961640D02*
X165436618Y-95999735D01*
X165436618Y-95999735D02*
X165398523Y-96075926D01*
X165398523Y-96075926D02*
X165360428Y-96228307D01*
X165360428Y-96228307D02*
X165360428Y-96418783D01*
X165360428Y-96418783D02*
X165398523Y-96571164D01*
X165398523Y-96571164D02*
X165436618Y-96647354D01*
X165436618Y-96647354D02*
X165474713Y-96685450D01*
X165474713Y-96685450D02*
X165550904Y-96723545D01*
X165550904Y-96723545D02*
X165627094Y-96723545D01*
X165627094Y-96723545D02*
X165703285Y-96685450D01*
X165703285Y-96685450D02*
X165741380Y-96647354D01*
X165741380Y-96647354D02*
X165779475Y-96571164D01*
X165779475Y-96571164D02*
X165817571Y-96418783D01*
X165817571Y-96418783D02*
X165817571Y-96228307D01*
X165817571Y-96228307D02*
X165779475Y-96075926D01*
X165779475Y-96075926D02*
X165741380Y-95999735D01*
X165741380Y-95999735D02*
X165703285Y-95961640D01*
X165703285Y-95961640D02*
X165627094Y-95923545D01*
X177177666Y-98844497D02*
X177444332Y-98844497D01*
X177444332Y-99263545D02*
X177444332Y-98463545D01*
X177444332Y-98463545D02*
X177063380Y-98463545D01*
X176415761Y-98463545D02*
X176568142Y-98463545D01*
X176568142Y-98463545D02*
X176644333Y-98501640D01*
X176644333Y-98501640D02*
X176682428Y-98539735D01*
X176682428Y-98539735D02*
X176758618Y-98654021D01*
X176758618Y-98654021D02*
X176796714Y-98806402D01*
X176796714Y-98806402D02*
X176796714Y-99111164D01*
X176796714Y-99111164D02*
X176758618Y-99187354D01*
X176758618Y-99187354D02*
X176720523Y-99225450D01*
X176720523Y-99225450D02*
X176644333Y-99263545D01*
X176644333Y-99263545D02*
X176491952Y-99263545D01*
X176491952Y-99263545D02*
X176415761Y-99225450D01*
X176415761Y-99225450D02*
X176377666Y-99187354D01*
X176377666Y-99187354D02*
X176339571Y-99111164D01*
X176339571Y-99111164D02*
X176339571Y-98920688D01*
X176339571Y-98920688D02*
X176377666Y-98844497D01*
X176377666Y-98844497D02*
X176415761Y-98806402D01*
X176415761Y-98806402D02*
X176491952Y-98768307D01*
X176491952Y-98768307D02*
X176644333Y-98768307D01*
X176644333Y-98768307D02*
X176720523Y-98806402D01*
X176720523Y-98806402D02*
X176758618Y-98844497D01*
X176758618Y-98844497D02*
X176796714Y-98920688D01*
X177234809Y-103924497D02*
X177120523Y-103962592D01*
X177120523Y-103962592D02*
X177082428Y-104000688D01*
X177082428Y-104000688D02*
X177044332Y-104076878D01*
X177044332Y-104076878D02*
X177044332Y-104191164D01*
X177044332Y-104191164D02*
X177082428Y-104267354D01*
X177082428Y-104267354D02*
X177120523Y-104305450D01*
X177120523Y-104305450D02*
X177196713Y-104343545D01*
X177196713Y-104343545D02*
X177501475Y-104343545D01*
X177501475Y-104343545D02*
X177501475Y-103543545D01*
X177501475Y-103543545D02*
X177234809Y-103543545D01*
X177234809Y-103543545D02*
X177158618Y-103581640D01*
X177158618Y-103581640D02*
X177120523Y-103619735D01*
X177120523Y-103619735D02*
X177082428Y-103695926D01*
X177082428Y-103695926D02*
X177082428Y-103772116D01*
X177082428Y-103772116D02*
X177120523Y-103848307D01*
X177120523Y-103848307D02*
X177158618Y-103886402D01*
X177158618Y-103886402D02*
X177234809Y-103924497D01*
X177234809Y-103924497D02*
X177501475Y-103924497D01*
X176282428Y-104343545D02*
X176739571Y-104343545D01*
X176510999Y-104343545D02*
X176510999Y-103543545D01*
X176510999Y-103543545D02*
X176587190Y-103657830D01*
X176587190Y-103657830D02*
X176663380Y-103734021D01*
X176663380Y-103734021D02*
X176739571Y-103772116D01*
X166579475Y-99263545D02*
X166579475Y-98463545D01*
X166579475Y-98463545D02*
X166388999Y-98463545D01*
X166388999Y-98463545D02*
X166274713Y-98501640D01*
X166274713Y-98501640D02*
X166198523Y-98577830D01*
X166198523Y-98577830D02*
X166160428Y-98654021D01*
X166160428Y-98654021D02*
X166122332Y-98806402D01*
X166122332Y-98806402D02*
X166122332Y-98920688D01*
X166122332Y-98920688D02*
X166160428Y-99073069D01*
X166160428Y-99073069D02*
X166198523Y-99149259D01*
X166198523Y-99149259D02*
X166274713Y-99225450D01*
X166274713Y-99225450D02*
X166388999Y-99263545D01*
X166388999Y-99263545D02*
X166579475Y-99263545D01*
X165436618Y-98730211D02*
X165436618Y-99263545D01*
X165627094Y-98425450D02*
X165817571Y-98996878D01*
X165817571Y-98996878D02*
X165322332Y-98996878D01*
X166122332Y-101727354D02*
X166160428Y-101765450D01*
X166160428Y-101765450D02*
X166274713Y-101803545D01*
X166274713Y-101803545D02*
X166350904Y-101803545D01*
X166350904Y-101803545D02*
X166465190Y-101765450D01*
X166465190Y-101765450D02*
X166541380Y-101689259D01*
X166541380Y-101689259D02*
X166579475Y-101613069D01*
X166579475Y-101613069D02*
X166617571Y-101460688D01*
X166617571Y-101460688D02*
X166617571Y-101346402D01*
X166617571Y-101346402D02*
X166579475Y-101194021D01*
X166579475Y-101194021D02*
X166541380Y-101117830D01*
X166541380Y-101117830D02*
X166465190Y-101041640D01*
X166465190Y-101041640D02*
X166350904Y-101003545D01*
X166350904Y-101003545D02*
X166274713Y-101003545D01*
X166274713Y-101003545D02*
X166160428Y-101041640D01*
X166160428Y-101041640D02*
X166122332Y-101079735D01*
X165436618Y-101003545D02*
X165588999Y-101003545D01*
X165588999Y-101003545D02*
X165665190Y-101041640D01*
X165665190Y-101041640D02*
X165703285Y-101079735D01*
X165703285Y-101079735D02*
X165779475Y-101194021D01*
X165779475Y-101194021D02*
X165817571Y-101346402D01*
X165817571Y-101346402D02*
X165817571Y-101651164D01*
X165817571Y-101651164D02*
X165779475Y-101727354D01*
X165779475Y-101727354D02*
X165741380Y-101765450D01*
X165741380Y-101765450D02*
X165665190Y-101803545D01*
X165665190Y-101803545D02*
X165512809Y-101803545D01*
X165512809Y-101803545D02*
X165436618Y-101765450D01*
X165436618Y-101765450D02*
X165398523Y-101727354D01*
X165398523Y-101727354D02*
X165360428Y-101651164D01*
X165360428Y-101651164D02*
X165360428Y-101460688D01*
X165360428Y-101460688D02*
X165398523Y-101384497D01*
X165398523Y-101384497D02*
X165436618Y-101346402D01*
X165436618Y-101346402D02*
X165512809Y-101308307D01*
X165512809Y-101308307D02*
X165665190Y-101308307D01*
X165665190Y-101308307D02*
X165741380Y-101346402D01*
X165741380Y-101346402D02*
X165779475Y-101384497D01*
X165779475Y-101384497D02*
X165817571Y-101460688D01*
X169980476Y-83862295D02*
X169523333Y-83862295D01*
X169751905Y-84662295D02*
X169751905Y-83862295D01*
X169332857Y-83862295D02*
X168799523Y-84662295D01*
X168799523Y-83862295D02*
X169332857Y-84662295D01*
X168342380Y-83862295D02*
X168266190Y-83862295D01*
X168266190Y-83862295D02*
X168189999Y-83900390D01*
X168189999Y-83900390D02*
X168151904Y-83938485D01*
X168151904Y-83938485D02*
X168113809Y-84014676D01*
X168113809Y-84014676D02*
X168075714Y-84167057D01*
X168075714Y-84167057D02*
X168075714Y-84357533D01*
X168075714Y-84357533D02*
X168113809Y-84509914D01*
X168113809Y-84509914D02*
X168151904Y-84586104D01*
X168151904Y-84586104D02*
X168189999Y-84624200D01*
X168189999Y-84624200D02*
X168266190Y-84662295D01*
X168266190Y-84662295D02*
X168342380Y-84662295D01*
X168342380Y-84662295D02*
X168418571Y-84624200D01*
X168418571Y-84624200D02*
X168456666Y-84586104D01*
X168456666Y-84586104D02*
X168494761Y-84509914D01*
X168494761Y-84509914D02*
X168532857Y-84357533D01*
X168532857Y-84357533D02*
X168532857Y-84167057D01*
X168532857Y-84167057D02*
X168494761Y-84014676D01*
X168494761Y-84014676D02*
X168456666Y-83938485D01*
X168456666Y-83938485D02*
X168418571Y-83900390D01*
X168418571Y-83900390D02*
X168342380Y-83862295D01*
X167161428Y-83824200D02*
X167847142Y-84852771D01*
X166894761Y-84662295D02*
X166894761Y-83862295D01*
X166894761Y-83862295D02*
X166704285Y-83862295D01*
X166704285Y-83862295D02*
X166589999Y-83900390D01*
X166589999Y-83900390D02*
X166513809Y-83976580D01*
X166513809Y-83976580D02*
X166475714Y-84052771D01*
X166475714Y-84052771D02*
X166437618Y-84205152D01*
X166437618Y-84205152D02*
X166437618Y-84319438D01*
X166437618Y-84319438D02*
X166475714Y-84471819D01*
X166475714Y-84471819D02*
X166513809Y-84548009D01*
X166513809Y-84548009D02*
X166589999Y-84624200D01*
X166589999Y-84624200D02*
X166704285Y-84662295D01*
X166704285Y-84662295D02*
X166894761Y-84662295D01*
X166170952Y-83862295D02*
X165675714Y-83862295D01*
X165675714Y-83862295D02*
X165942380Y-84167057D01*
X165942380Y-84167057D02*
X165828095Y-84167057D01*
X165828095Y-84167057D02*
X165751904Y-84205152D01*
X165751904Y-84205152D02*
X165713809Y-84243247D01*
X165713809Y-84243247D02*
X165675714Y-84319438D01*
X165675714Y-84319438D02*
X165675714Y-84509914D01*
X165675714Y-84509914D02*
X165713809Y-84586104D01*
X165713809Y-84586104D02*
X165751904Y-84624200D01*
X165751904Y-84624200D02*
X165828095Y-84662295D01*
X165828095Y-84662295D02*
X166056666Y-84662295D01*
X166056666Y-84662295D02*
X166132857Y-84624200D01*
X166132857Y-84624200D02*
X166170952Y-84586104D01*
X177023333Y-89045450D02*
X176909047Y-89083545D01*
X176909047Y-89083545D02*
X176718571Y-89083545D01*
X176718571Y-89083545D02*
X176642380Y-89045450D01*
X176642380Y-89045450D02*
X176604285Y-89007354D01*
X176604285Y-89007354D02*
X176566190Y-88931164D01*
X176566190Y-88931164D02*
X176566190Y-88854973D01*
X176566190Y-88854973D02*
X176604285Y-88778783D01*
X176604285Y-88778783D02*
X176642380Y-88740688D01*
X176642380Y-88740688D02*
X176718571Y-88702592D01*
X176718571Y-88702592D02*
X176870952Y-88664497D01*
X176870952Y-88664497D02*
X176947142Y-88626402D01*
X176947142Y-88626402D02*
X176985237Y-88588307D01*
X176985237Y-88588307D02*
X177023333Y-88512116D01*
X177023333Y-88512116D02*
X177023333Y-88435926D01*
X177023333Y-88435926D02*
X176985237Y-88359735D01*
X176985237Y-88359735D02*
X176947142Y-88321640D01*
X176947142Y-88321640D02*
X176870952Y-88283545D01*
X176870952Y-88283545D02*
X176680475Y-88283545D01*
X176680475Y-88283545D02*
X176566190Y-88321640D01*
X176337618Y-88283545D02*
X175880475Y-88283545D01*
X176109047Y-89083545D02*
X176109047Y-88283545D01*
X177234809Y-106464497D02*
X177120523Y-106502592D01*
X177120523Y-106502592D02*
X177082428Y-106540688D01*
X177082428Y-106540688D02*
X177044332Y-106616878D01*
X177044332Y-106616878D02*
X177044332Y-106731164D01*
X177044332Y-106731164D02*
X177082428Y-106807354D01*
X177082428Y-106807354D02*
X177120523Y-106845450D01*
X177120523Y-106845450D02*
X177196713Y-106883545D01*
X177196713Y-106883545D02*
X177501475Y-106883545D01*
X177501475Y-106883545D02*
X177501475Y-106083545D01*
X177501475Y-106083545D02*
X177234809Y-106083545D01*
X177234809Y-106083545D02*
X177158618Y-106121640D01*
X177158618Y-106121640D02*
X177120523Y-106159735D01*
X177120523Y-106159735D02*
X177082428Y-106235926D01*
X177082428Y-106235926D02*
X177082428Y-106312116D01*
X177082428Y-106312116D02*
X177120523Y-106388307D01*
X177120523Y-106388307D02*
X177158618Y-106426402D01*
X177158618Y-106426402D02*
X177234809Y-106464497D01*
X177234809Y-106464497D02*
X177501475Y-106464497D01*
X176777666Y-106083545D02*
X176282428Y-106083545D01*
X176282428Y-106083545D02*
X176549094Y-106388307D01*
X176549094Y-106388307D02*
X176434809Y-106388307D01*
X176434809Y-106388307D02*
X176358618Y-106426402D01*
X176358618Y-106426402D02*
X176320523Y-106464497D01*
X176320523Y-106464497D02*
X176282428Y-106540688D01*
X176282428Y-106540688D02*
X176282428Y-106731164D01*
X176282428Y-106731164D02*
X176320523Y-106807354D01*
X176320523Y-106807354D02*
X176358618Y-106845450D01*
X176358618Y-106845450D02*
X176434809Y-106883545D01*
X176434809Y-106883545D02*
X176663380Y-106883545D01*
X176663380Y-106883545D02*
X176739571Y-106845450D01*
X176739571Y-106845450D02*
X176777666Y-106807354D01*
X177177666Y-101384497D02*
X177444332Y-101384497D01*
X177444332Y-101803545D02*
X177444332Y-101003545D01*
X177444332Y-101003545D02*
X177063380Y-101003545D01*
X176834809Y-101003545D02*
X176301475Y-101003545D01*
X176301475Y-101003545D02*
X176644333Y-101803545D01*
X177520523Y-85801640D02*
X177596713Y-85763545D01*
X177596713Y-85763545D02*
X177710999Y-85763545D01*
X177710999Y-85763545D02*
X177825285Y-85801640D01*
X177825285Y-85801640D02*
X177901475Y-85877830D01*
X177901475Y-85877830D02*
X177939570Y-85954021D01*
X177939570Y-85954021D02*
X177977666Y-86106402D01*
X177977666Y-86106402D02*
X177977666Y-86220688D01*
X177977666Y-86220688D02*
X177939570Y-86373069D01*
X177939570Y-86373069D02*
X177901475Y-86449259D01*
X177901475Y-86449259D02*
X177825285Y-86525450D01*
X177825285Y-86525450D02*
X177710999Y-86563545D01*
X177710999Y-86563545D02*
X177634808Y-86563545D01*
X177634808Y-86563545D02*
X177520523Y-86525450D01*
X177520523Y-86525450D02*
X177482427Y-86487354D01*
X177482427Y-86487354D02*
X177482427Y-86220688D01*
X177482427Y-86220688D02*
X177634808Y-86220688D01*
X177139570Y-86563545D02*
X177139570Y-85763545D01*
X177139570Y-85763545D02*
X176682427Y-86563545D01*
X176682427Y-86563545D02*
X176682427Y-85763545D01*
X176301475Y-86563545D02*
X176301475Y-85763545D01*
X176301475Y-85763545D02*
X176110999Y-85763545D01*
X176110999Y-85763545D02*
X175996713Y-85801640D01*
X175996713Y-85801640D02*
X175920523Y-85877830D01*
X175920523Y-85877830D02*
X175882428Y-85954021D01*
X175882428Y-85954021D02*
X175844332Y-86106402D01*
X175844332Y-86106402D02*
X175844332Y-86220688D01*
X175844332Y-86220688D02*
X175882428Y-86373069D01*
X175882428Y-86373069D02*
X175920523Y-86449259D01*
X175920523Y-86449259D02*
X175996713Y-86525450D01*
X175996713Y-86525450D02*
X176110999Y-86563545D01*
X176110999Y-86563545D02*
X176301475Y-86563545D01*
X166312809Y-111544497D02*
X166198523Y-111582592D01*
X166198523Y-111582592D02*
X166160428Y-111620688D01*
X166160428Y-111620688D02*
X166122332Y-111696878D01*
X166122332Y-111696878D02*
X166122332Y-111811164D01*
X166122332Y-111811164D02*
X166160428Y-111887354D01*
X166160428Y-111887354D02*
X166198523Y-111925450D01*
X166198523Y-111925450D02*
X166274713Y-111963545D01*
X166274713Y-111963545D02*
X166579475Y-111963545D01*
X166579475Y-111963545D02*
X166579475Y-111163545D01*
X166579475Y-111163545D02*
X166312809Y-111163545D01*
X166312809Y-111163545D02*
X166236618Y-111201640D01*
X166236618Y-111201640D02*
X166198523Y-111239735D01*
X166198523Y-111239735D02*
X166160428Y-111315926D01*
X166160428Y-111315926D02*
X166160428Y-111392116D01*
X166160428Y-111392116D02*
X166198523Y-111468307D01*
X166198523Y-111468307D02*
X166236618Y-111506402D01*
X166236618Y-111506402D02*
X166312809Y-111544497D01*
X166312809Y-111544497D02*
X166579475Y-111544497D01*
X165398523Y-111163545D02*
X165779475Y-111163545D01*
X165779475Y-111163545D02*
X165817571Y-111544497D01*
X165817571Y-111544497D02*
X165779475Y-111506402D01*
X165779475Y-111506402D02*
X165703285Y-111468307D01*
X165703285Y-111468307D02*
X165512809Y-111468307D01*
X165512809Y-111468307D02*
X165436618Y-111506402D01*
X165436618Y-111506402D02*
X165398523Y-111544497D01*
X165398523Y-111544497D02*
X165360428Y-111620688D01*
X165360428Y-111620688D02*
X165360428Y-111811164D01*
X165360428Y-111811164D02*
X165398523Y-111887354D01*
X165398523Y-111887354D02*
X165436618Y-111925450D01*
X165436618Y-111925450D02*
X165512809Y-111963545D01*
X165512809Y-111963545D02*
X165703285Y-111963545D01*
X165703285Y-111963545D02*
X165779475Y-111925450D01*
X165779475Y-111925450D02*
X165817571Y-111887354D01*
X177177666Y-96304497D02*
X177444332Y-96304497D01*
X177444332Y-96723545D02*
X177444332Y-95923545D01*
X177444332Y-95923545D02*
X177063380Y-95923545D01*
X176377666Y-95923545D02*
X176758618Y-95923545D01*
X176758618Y-95923545D02*
X176796714Y-96304497D01*
X176796714Y-96304497D02*
X176758618Y-96266402D01*
X176758618Y-96266402D02*
X176682428Y-96228307D01*
X176682428Y-96228307D02*
X176491952Y-96228307D01*
X176491952Y-96228307D02*
X176415761Y-96266402D01*
X176415761Y-96266402D02*
X176377666Y-96304497D01*
X176377666Y-96304497D02*
X176339571Y-96380688D01*
X176339571Y-96380688D02*
X176339571Y-96571164D01*
X176339571Y-96571164D02*
X176377666Y-96647354D01*
X176377666Y-96647354D02*
X176415761Y-96685450D01*
X176415761Y-96685450D02*
X176491952Y-96723545D01*
X176491952Y-96723545D02*
X176682428Y-96723545D01*
X176682428Y-96723545D02*
X176758618Y-96685450D01*
X176758618Y-96685450D02*
X176796714Y-96647354D01*
X166579475Y-86563545D02*
X166579475Y-85763545D01*
X166579475Y-85763545D02*
X166388999Y-85763545D01*
X166388999Y-85763545D02*
X166274713Y-85801640D01*
X166274713Y-85801640D02*
X166198523Y-85877830D01*
X166198523Y-85877830D02*
X166160428Y-85954021D01*
X166160428Y-85954021D02*
X166122332Y-86106402D01*
X166122332Y-86106402D02*
X166122332Y-86220688D01*
X166122332Y-86220688D02*
X166160428Y-86373069D01*
X166160428Y-86373069D02*
X166198523Y-86449259D01*
X166198523Y-86449259D02*
X166274713Y-86525450D01*
X166274713Y-86525450D02*
X166388999Y-86563545D01*
X166388999Y-86563545D02*
X166579475Y-86563545D01*
X165817571Y-85839735D02*
X165779475Y-85801640D01*
X165779475Y-85801640D02*
X165703285Y-85763545D01*
X165703285Y-85763545D02*
X165512809Y-85763545D01*
X165512809Y-85763545D02*
X165436618Y-85801640D01*
X165436618Y-85801640D02*
X165398523Y-85839735D01*
X165398523Y-85839735D02*
X165360428Y-85915926D01*
X165360428Y-85915926D02*
X165360428Y-85992116D01*
X165360428Y-85992116D02*
X165398523Y-86106402D01*
X165398523Y-86106402D02*
X165855666Y-86563545D01*
X165855666Y-86563545D02*
X165360428Y-86563545D01*
X166312809Y-109004497D02*
X166198523Y-109042592D01*
X166198523Y-109042592D02*
X166160428Y-109080688D01*
X166160428Y-109080688D02*
X166122332Y-109156878D01*
X166122332Y-109156878D02*
X166122332Y-109271164D01*
X166122332Y-109271164D02*
X166160428Y-109347354D01*
X166160428Y-109347354D02*
X166198523Y-109385450D01*
X166198523Y-109385450D02*
X166274713Y-109423545D01*
X166274713Y-109423545D02*
X166579475Y-109423545D01*
X166579475Y-109423545D02*
X166579475Y-108623545D01*
X166579475Y-108623545D02*
X166312809Y-108623545D01*
X166312809Y-108623545D02*
X166236618Y-108661640D01*
X166236618Y-108661640D02*
X166198523Y-108699735D01*
X166198523Y-108699735D02*
X166160428Y-108775926D01*
X166160428Y-108775926D02*
X166160428Y-108852116D01*
X166160428Y-108852116D02*
X166198523Y-108928307D01*
X166198523Y-108928307D02*
X166236618Y-108966402D01*
X166236618Y-108966402D02*
X166312809Y-109004497D01*
X166312809Y-109004497D02*
X166579475Y-109004497D01*
X165436618Y-108890211D02*
X165436618Y-109423545D01*
X165627094Y-108585450D02*
X165817571Y-109156878D01*
X165817571Y-109156878D02*
X165322332Y-109156878D01*
X166541380Y-106464497D02*
X166274714Y-106464497D01*
X166160428Y-106883545D02*
X166541380Y-106883545D01*
X166541380Y-106883545D02*
X166541380Y-106083545D01*
X166541380Y-106083545D02*
X166160428Y-106083545D01*
X165474713Y-106083545D02*
X165627094Y-106083545D01*
X165627094Y-106083545D02*
X165703285Y-106121640D01*
X165703285Y-106121640D02*
X165741380Y-106159735D01*
X165741380Y-106159735D02*
X165817570Y-106274021D01*
X165817570Y-106274021D02*
X165855666Y-106426402D01*
X165855666Y-106426402D02*
X165855666Y-106731164D01*
X165855666Y-106731164D02*
X165817570Y-106807354D01*
X165817570Y-106807354D02*
X165779475Y-106845450D01*
X165779475Y-106845450D02*
X165703285Y-106883545D01*
X165703285Y-106883545D02*
X165550904Y-106883545D01*
X165550904Y-106883545D02*
X165474713Y-106845450D01*
X165474713Y-106845450D02*
X165436618Y-106807354D01*
X165436618Y-106807354D02*
X165398523Y-106731164D01*
X165398523Y-106731164D02*
X165398523Y-106540688D01*
X165398523Y-106540688D02*
X165436618Y-106464497D01*
X165436618Y-106464497D02*
X165474713Y-106426402D01*
X165474713Y-106426402D02*
X165550904Y-106388307D01*
X165550904Y-106388307D02*
X165703285Y-106388307D01*
X165703285Y-106388307D02*
X165779475Y-106426402D01*
X165779475Y-106426402D02*
X165817570Y-106464497D01*
X165817570Y-106464497D02*
X165855666Y-106540688D01*
X177177666Y-93764497D02*
X177444332Y-93764497D01*
X177444332Y-94183545D02*
X177444332Y-93383545D01*
X177444332Y-93383545D02*
X177063380Y-93383545D01*
X176415761Y-93650211D02*
X176415761Y-94183545D01*
X176606237Y-93345450D02*
X176796714Y-93916878D01*
X176796714Y-93916878D02*
X176301475Y-93916878D01*
X177463380Y-84023545D02*
X177730047Y-83642592D01*
X177920523Y-84023545D02*
X177920523Y-83223545D01*
X177920523Y-83223545D02*
X177615761Y-83223545D01*
X177615761Y-83223545D02*
X177539571Y-83261640D01*
X177539571Y-83261640D02*
X177501476Y-83299735D01*
X177501476Y-83299735D02*
X177463380Y-83375926D01*
X177463380Y-83375926D02*
X177463380Y-83490211D01*
X177463380Y-83490211D02*
X177501476Y-83566402D01*
X177501476Y-83566402D02*
X177539571Y-83604497D01*
X177539571Y-83604497D02*
X177615761Y-83642592D01*
X177615761Y-83642592D02*
X177920523Y-83642592D01*
X177158619Y-83794973D02*
X176777666Y-83794973D01*
X177234809Y-84023545D02*
X176968142Y-83223545D01*
X176968142Y-83223545D02*
X176701476Y-84023545D01*
X176511000Y-83223545D02*
X176320524Y-84023545D01*
X176320524Y-84023545D02*
X176168143Y-83452116D01*
X176168143Y-83452116D02*
X176015762Y-84023545D01*
X176015762Y-84023545D02*
X175825286Y-83223545D01*
X177234809Y-111544497D02*
X177120523Y-111582592D01*
X177120523Y-111582592D02*
X177082428Y-111620688D01*
X177082428Y-111620688D02*
X177044332Y-111696878D01*
X177044332Y-111696878D02*
X177044332Y-111811164D01*
X177044332Y-111811164D02*
X177082428Y-111887354D01*
X177082428Y-111887354D02*
X177120523Y-111925450D01*
X177120523Y-111925450D02*
X177196713Y-111963545D01*
X177196713Y-111963545D02*
X177501475Y-111963545D01*
X177501475Y-111963545D02*
X177501475Y-111163545D01*
X177501475Y-111163545D02*
X177234809Y-111163545D01*
X177234809Y-111163545D02*
X177158618Y-111201640D01*
X177158618Y-111201640D02*
X177120523Y-111239735D01*
X177120523Y-111239735D02*
X177082428Y-111315926D01*
X177082428Y-111315926D02*
X177082428Y-111392116D01*
X177082428Y-111392116D02*
X177120523Y-111468307D01*
X177120523Y-111468307D02*
X177158618Y-111506402D01*
X177158618Y-111506402D02*
X177234809Y-111544497D01*
X177234809Y-111544497D02*
X177501475Y-111544497D01*
X176358618Y-111163545D02*
X176510999Y-111163545D01*
X176510999Y-111163545D02*
X176587190Y-111201640D01*
X176587190Y-111201640D02*
X176625285Y-111239735D01*
X176625285Y-111239735D02*
X176701475Y-111354021D01*
X176701475Y-111354021D02*
X176739571Y-111506402D01*
X176739571Y-111506402D02*
X176739571Y-111811164D01*
X176739571Y-111811164D02*
X176701475Y-111887354D01*
X176701475Y-111887354D02*
X176663380Y-111925450D01*
X176663380Y-111925450D02*
X176587190Y-111963545D01*
X176587190Y-111963545D02*
X176434809Y-111963545D01*
X176434809Y-111963545D02*
X176358618Y-111925450D01*
X176358618Y-111925450D02*
X176320523Y-111887354D01*
X176320523Y-111887354D02*
X176282428Y-111811164D01*
X176282428Y-111811164D02*
X176282428Y-111620688D01*
X176282428Y-111620688D02*
X176320523Y-111544497D01*
X176320523Y-111544497D02*
X176358618Y-111506402D01*
X176358618Y-111506402D02*
X176434809Y-111468307D01*
X176434809Y-111468307D02*
X176587190Y-111468307D01*
X176587190Y-111468307D02*
X176663380Y-111506402D01*
X176663380Y-111506402D02*
X176701475Y-111544497D01*
X176701475Y-111544497D02*
X176739571Y-111620688D01*
X177977666Y-90843545D02*
X177710999Y-91643545D01*
X177710999Y-91643545D02*
X177444333Y-90843545D01*
X176720523Y-91567354D02*
X176758619Y-91605450D01*
X176758619Y-91605450D02*
X176872904Y-91643545D01*
X176872904Y-91643545D02*
X176949095Y-91643545D01*
X176949095Y-91643545D02*
X177063381Y-91605450D01*
X177063381Y-91605450D02*
X177139571Y-91529259D01*
X177139571Y-91529259D02*
X177177666Y-91453069D01*
X177177666Y-91453069D02*
X177215762Y-91300688D01*
X177215762Y-91300688D02*
X177215762Y-91186402D01*
X177215762Y-91186402D02*
X177177666Y-91034021D01*
X177177666Y-91034021D02*
X177139571Y-90957830D01*
X177139571Y-90957830D02*
X177063381Y-90881640D01*
X177063381Y-90881640D02*
X176949095Y-90843545D01*
X176949095Y-90843545D02*
X176872904Y-90843545D01*
X176872904Y-90843545D02*
X176758619Y-90881640D01*
X176758619Y-90881640D02*
X176720523Y-90919735D01*
X175920523Y-91567354D02*
X175958619Y-91605450D01*
X175958619Y-91605450D02*
X176072904Y-91643545D01*
X176072904Y-91643545D02*
X176149095Y-91643545D01*
X176149095Y-91643545D02*
X176263381Y-91605450D01*
X176263381Y-91605450D02*
X176339571Y-91529259D01*
X176339571Y-91529259D02*
X176377666Y-91453069D01*
X176377666Y-91453069D02*
X176415762Y-91300688D01*
X176415762Y-91300688D02*
X176415762Y-91186402D01*
X176415762Y-91186402D02*
X176377666Y-91034021D01*
X176377666Y-91034021D02*
X176339571Y-90957830D01*
X176339571Y-90957830D02*
X176263381Y-90881640D01*
X176263381Y-90881640D02*
X176149095Y-90843545D01*
X176149095Y-90843545D02*
X176072904Y-90843545D01*
X176072904Y-90843545D02*
X175958619Y-90881640D01*
X175958619Y-90881640D02*
X175920523Y-90919735D01*
D11*
%TO.C,U1*%
X162560000Y-79851250D02*
X162560000Y-112871250D01*
X162560000Y-112871250D02*
X180340000Y-112871250D01*
X165100000Y-82391250D02*
X162560000Y-82391250D01*
X165100000Y-82391250D02*
X165100000Y-84931250D01*
X165100000Y-84931250D02*
X162560000Y-84931250D01*
X180340000Y-79851250D02*
X162560000Y-79851250D01*
X180340000Y-112871250D02*
X180340000Y-79851250D01*
D10*
X177794635Y-88380280D02*
X177294635Y-88380280D01*
X177294635Y-88280280D01*
X177794635Y-88280280D01*
X177794635Y-88380280D01*
G36*
X177794635Y-88380280D02*
G01*
X177294635Y-88380280D01*
X177294635Y-88280280D01*
X177794635Y-88280280D01*
X177794635Y-88380280D01*
G37*
X177394635Y-88580280D02*
X177294635Y-88580280D01*
X177294635Y-88280280D01*
X177394635Y-88280280D01*
X177394635Y-88580280D01*
G36*
X177394635Y-88580280D02*
G01*
X177294635Y-88580280D01*
X177294635Y-88280280D01*
X177394635Y-88280280D01*
X177394635Y-88580280D01*
G37*
X177394635Y-89080280D02*
X177294635Y-89080280D01*
X177294635Y-88880280D01*
X177394635Y-88880280D01*
X177394635Y-89080280D01*
G36*
X177394635Y-89080280D02*
G01*
X177294635Y-89080280D01*
X177294635Y-88880280D01*
X177394635Y-88880280D01*
X177394635Y-89080280D01*
G37*
X177594635Y-88780280D02*
X177494635Y-88780280D01*
X177494635Y-88680280D01*
X177594635Y-88680280D01*
X177594635Y-88780280D01*
G36*
X177594635Y-88780280D02*
G01*
X177494635Y-88780280D01*
X177494635Y-88680280D01*
X177594635Y-88680280D01*
X177594635Y-88780280D01*
G37*
X177794635Y-89080280D02*
X177694635Y-89080280D01*
X177694635Y-88280280D01*
X177794635Y-88280280D01*
X177794635Y-89080280D01*
G36*
X177794635Y-89080280D02*
G01*
X177694635Y-89080280D01*
X177694635Y-88280280D01*
X177794635Y-88280280D01*
X177794635Y-89080280D01*
G37*
D12*
%TO.C,D7*%
X109455000Y-114050000D02*
X109855000Y-114650000D01*
X109855000Y-114050000D02*
X109855000Y-113550000D01*
X109855000Y-114650000D02*
X110255000Y-114050000D01*
X109855000Y-115050000D02*
X109855000Y-114650000D01*
X110255000Y-114050000D02*
X109455000Y-114050000D01*
X110405000Y-114650000D02*
X109305000Y-114650000D01*
%TO.C,D3*%
X147555000Y-75950000D02*
X147955000Y-76550000D01*
X147955000Y-75950000D02*
X147955000Y-75450000D01*
X147955000Y-76550000D02*
X148355000Y-75950000D01*
X147955000Y-76950000D02*
X147955000Y-76550000D01*
X148355000Y-75950000D02*
X147555000Y-75950000D01*
X148505000Y-76550000D02*
X147405000Y-76550000D01*
%TO.C,D2*%
X128505000Y-75950000D02*
X128905000Y-76550000D01*
X128905000Y-75950000D02*
X128905000Y-75450000D01*
X128905000Y-76550000D02*
X129305000Y-75950000D01*
X128905000Y-76950000D02*
X128905000Y-76550000D01*
X129305000Y-75950000D02*
X128505000Y-75950000D01*
X129455000Y-76550000D02*
X128355000Y-76550000D01*
%TO.C,D5*%
X128505000Y-95000000D02*
X128905000Y-95600000D01*
X128905000Y-95000000D02*
X128905000Y-94500000D01*
X128905000Y-95600000D02*
X129305000Y-95000000D01*
X128905000Y-96000000D02*
X128905000Y-95600000D01*
X129305000Y-95000000D02*
X128505000Y-95000000D01*
X129455000Y-95600000D02*
X128355000Y-95600000D01*
%TO.C,D8*%
X128505000Y-114050000D02*
X128905000Y-114650000D01*
X128905000Y-114050000D02*
X128905000Y-113550000D01*
X128905000Y-114650000D02*
X129305000Y-114050000D01*
X128905000Y-115050000D02*
X128905000Y-114650000D01*
X129305000Y-114050000D02*
X128505000Y-114050000D01*
X129455000Y-114650000D02*
X128355000Y-114650000D01*
%TO.C,D4*%
X109455000Y-95000000D02*
X109855000Y-95600000D01*
X109855000Y-95000000D02*
X109855000Y-94500000D01*
X109855000Y-95600000D02*
X110255000Y-95000000D01*
X109855000Y-96000000D02*
X109855000Y-95600000D01*
X110255000Y-95000000D02*
X109455000Y-95000000D01*
X110405000Y-95600000D02*
X109305000Y-95600000D01*
%TO.C,D1*%
X109455000Y-75950000D02*
X109855000Y-76550000D01*
X109855000Y-75950000D02*
X109855000Y-75450000D01*
X109855000Y-76550000D02*
X110255000Y-75950000D01*
X109855000Y-76950000D02*
X109855000Y-76550000D01*
X110255000Y-75950000D02*
X109455000Y-75950000D01*
X110405000Y-76550000D02*
X109305000Y-76550000D01*
%TO.C,D6*%
X147555000Y-95000000D02*
X147955000Y-95600000D01*
X147955000Y-95000000D02*
X147955000Y-94500000D01*
X147955000Y-95600000D02*
X148355000Y-95000000D01*
X147955000Y-96000000D02*
X147955000Y-95600000D01*
X148355000Y-95000000D02*
X147555000Y-95000000D01*
X148505000Y-95600000D02*
X147405000Y-95600000D01*
%TO.C,D9*%
X147555000Y-114050000D02*
X147955000Y-114650000D01*
X147955000Y-114050000D02*
X147955000Y-113550000D01*
X147955000Y-114650000D02*
X148355000Y-114050000D01*
X147955000Y-115050000D02*
X147955000Y-114650000D01*
X148355000Y-114050000D02*
X147555000Y-114050000D01*
X148505000Y-114650000D02*
X147405000Y-114650000D01*
%TD*%
D13*
%TO.C,U1*%
X163830000Y-83661250D03*
D14*
X163830000Y-86201250D03*
X163830000Y-88741250D03*
X163830000Y-91281250D03*
X163830000Y-93821250D03*
X163830000Y-96361250D03*
X163830000Y-98901250D03*
X163830000Y-101441250D03*
X163830000Y-103981250D03*
X163830000Y-106521250D03*
X163830000Y-109061250D03*
X163830000Y-111601250D03*
X179070000Y-111601250D03*
X179070000Y-109061250D03*
X179070000Y-106521250D03*
X179070000Y-103981250D03*
X179070000Y-101441250D03*
X179070000Y-98901250D03*
X179070000Y-96361250D03*
X179070000Y-93821250D03*
X179070000Y-91281250D03*
X179070000Y-88741250D03*
X179070000Y-86201250D03*
X179070000Y-83661250D03*
%TD*%
M02*
