%TF.GenerationSoftware,KiCad,Pcbnew,9.0.2*%
%TF.CreationDate,2025-06-28T14:34:15-07:00*%
%TF.ProjectId,untitled,756e7469-746c-4656-942e-6b696361645f,rev?*%
%TF.SameCoordinates,Original*%
%TF.FileFunction,Legend,Top*%
%TF.FilePolarity,Positive*%
%FSLAX46Y46*%
G04 Gerber Fmt 4.6, Leading zero omitted, Abs format (unit mm)*
G04 Created by KiCad (PCBNEW 9.0.2) date 2025-06-28 14:34:15*
%MOMM*%
%LPD*%
G01*
G04 APERTURE LIST*
%ADD10C,0.300000*%
%ADD11C,0.150000*%
%ADD12C,0.120000*%
%ADD13C,0.200000*%
%ADD14R,1.752600X1.752600*%
%ADD15C,1.752600*%
G04 APERTURE END LIST*
D10*
X160344332Y-71133234D02*
X160558618Y-71204662D01*
X160558618Y-71204662D02*
X160915760Y-71204662D01*
X160915760Y-71204662D02*
X161058618Y-71133234D01*
X161058618Y-71133234D02*
X161130046Y-71061805D01*
X161130046Y-71061805D02*
X161201475Y-70918948D01*
X161201475Y-70918948D02*
X161201475Y-70776091D01*
X161201475Y-70776091D02*
X161130046Y-70633234D01*
X161130046Y-70633234D02*
X161058618Y-70561805D01*
X161058618Y-70561805D02*
X160915760Y-70490376D01*
X160915760Y-70490376D02*
X160630046Y-70418948D01*
X160630046Y-70418948D02*
X160487189Y-70347519D01*
X160487189Y-70347519D02*
X160415760Y-70276091D01*
X160415760Y-70276091D02*
X160344332Y-70133234D01*
X160344332Y-70133234D02*
X160344332Y-69990376D01*
X160344332Y-69990376D02*
X160415760Y-69847519D01*
X160415760Y-69847519D02*
X160487189Y-69776091D01*
X160487189Y-69776091D02*
X160630046Y-69704662D01*
X160630046Y-69704662D02*
X160987189Y-69704662D01*
X160987189Y-69704662D02*
X161201475Y-69776091D01*
X161844331Y-71204662D02*
X161844331Y-69704662D01*
X162487189Y-71204662D02*
X162487189Y-70418948D01*
X162487189Y-70418948D02*
X162415760Y-70276091D01*
X162415760Y-70276091D02*
X162272903Y-70204662D01*
X162272903Y-70204662D02*
X162058617Y-70204662D01*
X162058617Y-70204662D02*
X161915760Y-70276091D01*
X161915760Y-70276091D02*
X161844331Y-70347519D01*
X163201474Y-71204662D02*
X163201474Y-70204662D01*
X163201474Y-70490376D02*
X163272903Y-70347519D01*
X163272903Y-70347519D02*
X163344332Y-70276091D01*
X163344332Y-70276091D02*
X163487189Y-70204662D01*
X163487189Y-70204662D02*
X163630046Y-70204662D01*
X164130045Y-71204662D02*
X164130045Y-70204662D01*
X164130045Y-69704662D02*
X164058617Y-69776091D01*
X164058617Y-69776091D02*
X164130045Y-69847519D01*
X164130045Y-69847519D02*
X164201474Y-69776091D01*
X164201474Y-69776091D02*
X164130045Y-69704662D01*
X164130045Y-69704662D02*
X164130045Y-69847519D01*
X164701474Y-70204662D02*
X165058617Y-71204662D01*
X165415760Y-70204662D02*
X165058617Y-71204662D01*
X165058617Y-71204662D02*
X164915760Y-71561805D01*
X164915760Y-71561805D02*
X164844331Y-71633234D01*
X164844331Y-71633234D02*
X164701474Y-71704662D01*
X166630046Y-71204662D02*
X166630046Y-70418948D01*
X166630046Y-70418948D02*
X166558617Y-70276091D01*
X166558617Y-70276091D02*
X166415760Y-70204662D01*
X166415760Y-70204662D02*
X166130046Y-70204662D01*
X166130046Y-70204662D02*
X165987188Y-70276091D01*
X166630046Y-71133234D02*
X166487188Y-71204662D01*
X166487188Y-71204662D02*
X166130046Y-71204662D01*
X166130046Y-71204662D02*
X165987188Y-71133234D01*
X165987188Y-71133234D02*
X165915760Y-70990376D01*
X165915760Y-70990376D02*
X165915760Y-70847519D01*
X165915760Y-70847519D02*
X165987188Y-70704662D01*
X165987188Y-70704662D02*
X166130046Y-70633234D01*
X166130046Y-70633234D02*
X166487188Y-70633234D01*
X166487188Y-70633234D02*
X166630046Y-70561805D01*
X167415760Y-69704662D02*
X167272903Y-69990376D01*
X167987189Y-71133234D02*
X168130046Y-71204662D01*
X168130046Y-71204662D02*
X168415760Y-71204662D01*
X168415760Y-71204662D02*
X168558617Y-71133234D01*
X168558617Y-71133234D02*
X168630046Y-70990376D01*
X168630046Y-70990376D02*
X168630046Y-70918948D01*
X168630046Y-70918948D02*
X168558617Y-70776091D01*
X168558617Y-70776091D02*
X168415760Y-70704662D01*
X168415760Y-70704662D02*
X168201475Y-70704662D01*
X168201475Y-70704662D02*
X168058617Y-70633234D01*
X168058617Y-70633234D02*
X167987189Y-70490376D01*
X167987189Y-70490376D02*
X167987189Y-70418948D01*
X167987189Y-70418948D02*
X168058617Y-70276091D01*
X168058617Y-70276091D02*
X168201475Y-70204662D01*
X168201475Y-70204662D02*
X168415760Y-70204662D01*
X168415760Y-70204662D02*
X168558617Y-70276091D01*
X170415760Y-71204662D02*
X170415760Y-69704662D01*
X170415760Y-69704662D02*
X170915760Y-70776091D01*
X170915760Y-70776091D02*
X171415760Y-69704662D01*
X171415760Y-69704662D02*
X171415760Y-71204662D01*
X172772904Y-71204662D02*
X172772904Y-70418948D01*
X172772904Y-70418948D02*
X172701475Y-70276091D01*
X172701475Y-70276091D02*
X172558618Y-70204662D01*
X172558618Y-70204662D02*
X172272904Y-70204662D01*
X172272904Y-70204662D02*
X172130046Y-70276091D01*
X172772904Y-71133234D02*
X172630046Y-71204662D01*
X172630046Y-71204662D02*
X172272904Y-71204662D01*
X172272904Y-71204662D02*
X172130046Y-71133234D01*
X172130046Y-71133234D02*
X172058618Y-70990376D01*
X172058618Y-70990376D02*
X172058618Y-70847519D01*
X172058618Y-70847519D02*
X172130046Y-70704662D01*
X172130046Y-70704662D02*
X172272904Y-70633234D01*
X172272904Y-70633234D02*
X172630046Y-70633234D01*
X172630046Y-70633234D02*
X172772904Y-70561805D01*
X174130047Y-71133234D02*
X173987189Y-71204662D01*
X173987189Y-71204662D02*
X173701475Y-71204662D01*
X173701475Y-71204662D02*
X173558618Y-71133234D01*
X173558618Y-71133234D02*
X173487189Y-71061805D01*
X173487189Y-71061805D02*
X173415761Y-70918948D01*
X173415761Y-70918948D02*
X173415761Y-70490376D01*
X173415761Y-70490376D02*
X173487189Y-70347519D01*
X173487189Y-70347519D02*
X173558618Y-70276091D01*
X173558618Y-70276091D02*
X173701475Y-70204662D01*
X173701475Y-70204662D02*
X173987189Y-70204662D01*
X173987189Y-70204662D02*
X174130047Y-70276091D01*
X174772903Y-71204662D02*
X174772903Y-70204662D01*
X174772903Y-70490376D02*
X174844332Y-70347519D01*
X174844332Y-70347519D02*
X174915761Y-70276091D01*
X174915761Y-70276091D02*
X175058618Y-70204662D01*
X175058618Y-70204662D02*
X175201475Y-70204662D01*
X175915760Y-71204662D02*
X175772903Y-71133234D01*
X175772903Y-71133234D02*
X175701474Y-71061805D01*
X175701474Y-71061805D02*
X175630046Y-70918948D01*
X175630046Y-70918948D02*
X175630046Y-70490376D01*
X175630046Y-70490376D02*
X175701474Y-70347519D01*
X175701474Y-70347519D02*
X175772903Y-70276091D01*
X175772903Y-70276091D02*
X175915760Y-70204662D01*
X175915760Y-70204662D02*
X176130046Y-70204662D01*
X176130046Y-70204662D02*
X176272903Y-70276091D01*
X176272903Y-70276091D02*
X176344332Y-70347519D01*
X176344332Y-70347519D02*
X176415760Y-70490376D01*
X176415760Y-70490376D02*
X176415760Y-70918948D01*
X176415760Y-70918948D02*
X176344332Y-71061805D01*
X176344332Y-71061805D02*
X176272903Y-71133234D01*
X176272903Y-71133234D02*
X176130046Y-71204662D01*
X176130046Y-71204662D02*
X175915760Y-71204662D01*
X177058617Y-70204662D02*
X177058617Y-71704662D01*
X177058617Y-70276091D02*
X177201475Y-70204662D01*
X177201475Y-70204662D02*
X177487189Y-70204662D01*
X177487189Y-70204662D02*
X177630046Y-70276091D01*
X177630046Y-70276091D02*
X177701475Y-70347519D01*
X177701475Y-70347519D02*
X177772903Y-70490376D01*
X177772903Y-70490376D02*
X177772903Y-70918948D01*
X177772903Y-70918948D02*
X177701475Y-71061805D01*
X177701475Y-71061805D02*
X177630046Y-71133234D01*
X177630046Y-71133234D02*
X177487189Y-71204662D01*
X177487189Y-71204662D02*
X177201475Y-71204662D01*
X177201475Y-71204662D02*
X177058617Y-71133234D01*
X179058618Y-71204662D02*
X179058618Y-70418948D01*
X179058618Y-70418948D02*
X178987189Y-70276091D01*
X178987189Y-70276091D02*
X178844332Y-70204662D01*
X178844332Y-70204662D02*
X178558618Y-70204662D01*
X178558618Y-70204662D02*
X178415760Y-70276091D01*
X179058618Y-71133234D02*
X178915760Y-71204662D01*
X178915760Y-71204662D02*
X178558618Y-71204662D01*
X178558618Y-71204662D02*
X178415760Y-71133234D01*
X178415760Y-71133234D02*
X178344332Y-70990376D01*
X178344332Y-70990376D02*
X178344332Y-70847519D01*
X178344332Y-70847519D02*
X178415760Y-70704662D01*
X178415760Y-70704662D02*
X178558618Y-70633234D01*
X178558618Y-70633234D02*
X178915760Y-70633234D01*
X178915760Y-70633234D02*
X179058618Y-70561805D01*
X180415761Y-71204662D02*
X180415761Y-69704662D01*
X180415761Y-71133234D02*
X180272903Y-71204662D01*
X180272903Y-71204662D02*
X179987189Y-71204662D01*
X179987189Y-71204662D02*
X179844332Y-71133234D01*
X179844332Y-71133234D02*
X179772903Y-71061805D01*
X179772903Y-71061805D02*
X179701475Y-70918948D01*
X179701475Y-70918948D02*
X179701475Y-70490376D01*
X179701475Y-70490376D02*
X179772903Y-70347519D01*
X179772903Y-70347519D02*
X179844332Y-70276091D01*
X179844332Y-70276091D02*
X179987189Y-70204662D01*
X179987189Y-70204662D02*
X180272903Y-70204662D01*
X180272903Y-70204662D02*
X180415761Y-70276091D01*
X161344332Y-72905292D02*
X161272903Y-72833864D01*
X161272903Y-72833864D02*
X161130046Y-72762435D01*
X161130046Y-72762435D02*
X160987189Y-72762435D01*
X160987189Y-72762435D02*
X160844332Y-72833864D01*
X160844332Y-72833864D02*
X160772903Y-72905292D01*
X160772903Y-72905292D02*
X160701475Y-73048150D01*
X160701475Y-73048150D02*
X160701475Y-73191007D01*
X160701475Y-73191007D02*
X160772903Y-73333864D01*
X160772903Y-73333864D02*
X160844332Y-73405292D01*
X160844332Y-73405292D02*
X160987189Y-73476721D01*
X160987189Y-73476721D02*
X161130046Y-73476721D01*
X161130046Y-73476721D02*
X161272903Y-73405292D01*
X161272903Y-73405292D02*
X161344332Y-73333864D01*
X161344332Y-72762435D02*
X161344332Y-73333864D01*
X161344332Y-73333864D02*
X161415760Y-73405292D01*
X161415760Y-73405292D02*
X161487189Y-73405292D01*
X161487189Y-73405292D02*
X161630046Y-73333864D01*
X161630046Y-73333864D02*
X161701475Y-73191007D01*
X161701475Y-73191007D02*
X161701475Y-72833864D01*
X161701475Y-72833864D02*
X161558618Y-72619578D01*
X161558618Y-72619578D02*
X161344332Y-72476721D01*
X161344332Y-72476721D02*
X161058618Y-72405292D01*
X161058618Y-72405292D02*
X160772903Y-72476721D01*
X160772903Y-72476721D02*
X160558618Y-72619578D01*
X160558618Y-72619578D02*
X160415760Y-72833864D01*
X160415760Y-72833864D02*
X160344332Y-73119578D01*
X160344332Y-73119578D02*
X160415760Y-73405292D01*
X160415760Y-73405292D02*
X160558618Y-73619578D01*
X160558618Y-73619578D02*
X160772903Y-73762435D01*
X160772903Y-73762435D02*
X161058618Y-73833864D01*
X161058618Y-73833864D02*
X161344332Y-73762435D01*
X161344332Y-73762435D02*
X161558618Y-73619578D01*
X162272903Y-73548150D02*
X162487189Y-73619578D01*
X162487189Y-73619578D02*
X162844331Y-73619578D01*
X162844331Y-73619578D02*
X162987189Y-73548150D01*
X162987189Y-73548150D02*
X163058617Y-73476721D01*
X163058617Y-73476721D02*
X163130046Y-73333864D01*
X163130046Y-73333864D02*
X163130046Y-73191007D01*
X163130046Y-73191007D02*
X163058617Y-73048150D01*
X163058617Y-73048150D02*
X162987189Y-72976721D01*
X162987189Y-72976721D02*
X162844331Y-72905292D01*
X162844331Y-72905292D02*
X162558617Y-72833864D01*
X162558617Y-72833864D02*
X162415760Y-72762435D01*
X162415760Y-72762435D02*
X162344331Y-72691007D01*
X162344331Y-72691007D02*
X162272903Y-72548150D01*
X162272903Y-72548150D02*
X162272903Y-72405292D01*
X162272903Y-72405292D02*
X162344331Y-72262435D01*
X162344331Y-72262435D02*
X162415760Y-72191007D01*
X162415760Y-72191007D02*
X162558617Y-72119578D01*
X162558617Y-72119578D02*
X162915760Y-72119578D01*
X162915760Y-72119578D02*
X163130046Y-72191007D01*
X163772902Y-73619578D02*
X163772902Y-72119578D01*
X164415760Y-73619578D02*
X164415760Y-72833864D01*
X164415760Y-72833864D02*
X164344331Y-72691007D01*
X164344331Y-72691007D02*
X164201474Y-72619578D01*
X164201474Y-72619578D02*
X163987188Y-72619578D01*
X163987188Y-72619578D02*
X163844331Y-72691007D01*
X163844331Y-72691007D02*
X163772902Y-72762435D01*
X165130045Y-73619578D02*
X165130045Y-72619578D01*
X165130045Y-72905292D02*
X165201474Y-72762435D01*
X165201474Y-72762435D02*
X165272903Y-72691007D01*
X165272903Y-72691007D02*
X165415760Y-72619578D01*
X165415760Y-72619578D02*
X165558617Y-72619578D01*
X166058616Y-73619578D02*
X166058616Y-72619578D01*
X166058616Y-72119578D02*
X165987188Y-72191007D01*
X165987188Y-72191007D02*
X166058616Y-72262435D01*
X166058616Y-72262435D02*
X166130045Y-72191007D01*
X166130045Y-72191007D02*
X166058616Y-72119578D01*
X166058616Y-72119578D02*
X166058616Y-72262435D01*
X166630045Y-72619578D02*
X166987188Y-73619578D01*
X167344331Y-72619578D02*
X166987188Y-73619578D01*
X166987188Y-73619578D02*
X166844331Y-73976721D01*
X166844331Y-73976721D02*
X166772902Y-74048150D01*
X166772902Y-74048150D02*
X166630045Y-74119578D01*
X168558617Y-73619578D02*
X168558617Y-72833864D01*
X168558617Y-72833864D02*
X168487188Y-72691007D01*
X168487188Y-72691007D02*
X168344331Y-72619578D01*
X168344331Y-72619578D02*
X168058617Y-72619578D01*
X168058617Y-72619578D02*
X167915759Y-72691007D01*
X168558617Y-73548150D02*
X168415759Y-73619578D01*
X168415759Y-73619578D02*
X168058617Y-73619578D01*
X168058617Y-73619578D02*
X167915759Y-73548150D01*
X167915759Y-73548150D02*
X167844331Y-73405292D01*
X167844331Y-73405292D02*
X167844331Y-73262435D01*
X167844331Y-73262435D02*
X167915759Y-73119578D01*
X167915759Y-73119578D02*
X168058617Y-73048150D01*
X168058617Y-73048150D02*
X168415759Y-73048150D01*
X168415759Y-73048150D02*
X168558617Y-72976721D01*
X169201474Y-73548150D02*
X169415760Y-73619578D01*
X169415760Y-73619578D02*
X169772902Y-73619578D01*
X169772902Y-73619578D02*
X169915760Y-73548150D01*
X169915760Y-73548150D02*
X169987188Y-73476721D01*
X169987188Y-73476721D02*
X170058617Y-73333864D01*
X170058617Y-73333864D02*
X170058617Y-73191007D01*
X170058617Y-73191007D02*
X169987188Y-73048150D01*
X169987188Y-73048150D02*
X169915760Y-72976721D01*
X169915760Y-72976721D02*
X169772902Y-72905292D01*
X169772902Y-72905292D02*
X169487188Y-72833864D01*
X169487188Y-72833864D02*
X169344331Y-72762435D01*
X169344331Y-72762435D02*
X169272902Y-72691007D01*
X169272902Y-72691007D02*
X169201474Y-72548150D01*
X169201474Y-72548150D02*
X169201474Y-72405292D01*
X169201474Y-72405292D02*
X169272902Y-72262435D01*
X169272902Y-72262435D02*
X169344331Y-72191007D01*
X169344331Y-72191007D02*
X169487188Y-72119578D01*
X169487188Y-72119578D02*
X169844331Y-72119578D01*
X169844331Y-72119578D02*
X170058617Y-72191007D01*
D11*
X99568095Y-87657200D02*
X99710952Y-87704819D01*
X99710952Y-87704819D02*
X99949047Y-87704819D01*
X99949047Y-87704819D02*
X100044285Y-87657200D01*
X100044285Y-87657200D02*
X100091904Y-87609580D01*
X100091904Y-87609580D02*
X100139523Y-87514342D01*
X100139523Y-87514342D02*
X100139523Y-87419104D01*
X100139523Y-87419104D02*
X100091904Y-87323866D01*
X100091904Y-87323866D02*
X100044285Y-87276247D01*
X100044285Y-87276247D02*
X99949047Y-87228628D01*
X99949047Y-87228628D02*
X99758571Y-87181009D01*
X99758571Y-87181009D02*
X99663333Y-87133390D01*
X99663333Y-87133390D02*
X99615714Y-87085771D01*
X99615714Y-87085771D02*
X99568095Y-86990533D01*
X99568095Y-86990533D02*
X99568095Y-86895295D01*
X99568095Y-86895295D02*
X99615714Y-86800057D01*
X99615714Y-86800057D02*
X99663333Y-86752438D01*
X99663333Y-86752438D02*
X99758571Y-86704819D01*
X99758571Y-86704819D02*
X99996666Y-86704819D01*
X99996666Y-86704819D02*
X100139523Y-86752438D01*
X100996666Y-87038152D02*
X100996666Y-87704819D01*
X100758571Y-86657200D02*
X100520476Y-87371485D01*
X100520476Y-87371485D02*
X101139523Y-87371485D01*
X137668095Y-87657200D02*
X137810952Y-87704819D01*
X137810952Y-87704819D02*
X138049047Y-87704819D01*
X138049047Y-87704819D02*
X138144285Y-87657200D01*
X138144285Y-87657200D02*
X138191904Y-87609580D01*
X138191904Y-87609580D02*
X138239523Y-87514342D01*
X138239523Y-87514342D02*
X138239523Y-87419104D01*
X138239523Y-87419104D02*
X138191904Y-87323866D01*
X138191904Y-87323866D02*
X138144285Y-87276247D01*
X138144285Y-87276247D02*
X138049047Y-87228628D01*
X138049047Y-87228628D02*
X137858571Y-87181009D01*
X137858571Y-87181009D02*
X137763333Y-87133390D01*
X137763333Y-87133390D02*
X137715714Y-87085771D01*
X137715714Y-87085771D02*
X137668095Y-86990533D01*
X137668095Y-86990533D02*
X137668095Y-86895295D01*
X137668095Y-86895295D02*
X137715714Y-86800057D01*
X137715714Y-86800057D02*
X137763333Y-86752438D01*
X137763333Y-86752438D02*
X137858571Y-86704819D01*
X137858571Y-86704819D02*
X138096666Y-86704819D01*
X138096666Y-86704819D02*
X138239523Y-86752438D01*
X139096666Y-86704819D02*
X138906190Y-86704819D01*
X138906190Y-86704819D02*
X138810952Y-86752438D01*
X138810952Y-86752438D02*
X138763333Y-86800057D01*
X138763333Y-86800057D02*
X138668095Y-86942914D01*
X138668095Y-86942914D02*
X138620476Y-87133390D01*
X138620476Y-87133390D02*
X138620476Y-87514342D01*
X138620476Y-87514342D02*
X138668095Y-87609580D01*
X138668095Y-87609580D02*
X138715714Y-87657200D01*
X138715714Y-87657200D02*
X138810952Y-87704819D01*
X138810952Y-87704819D02*
X139001428Y-87704819D01*
X139001428Y-87704819D02*
X139096666Y-87657200D01*
X139096666Y-87657200D02*
X139144285Y-87609580D01*
X139144285Y-87609580D02*
X139191904Y-87514342D01*
X139191904Y-87514342D02*
X139191904Y-87276247D01*
X139191904Y-87276247D02*
X139144285Y-87181009D01*
X139144285Y-87181009D02*
X139096666Y-87133390D01*
X139096666Y-87133390D02*
X139001428Y-87085771D01*
X139001428Y-87085771D02*
X138810952Y-87085771D01*
X138810952Y-87085771D02*
X138715714Y-87133390D01*
X138715714Y-87133390D02*
X138668095Y-87181009D01*
X138668095Y-87181009D02*
X138620476Y-87276247D01*
X137668095Y-106707200D02*
X137810952Y-106754819D01*
X137810952Y-106754819D02*
X138049047Y-106754819D01*
X138049047Y-106754819D02*
X138144285Y-106707200D01*
X138144285Y-106707200D02*
X138191904Y-106659580D01*
X138191904Y-106659580D02*
X138239523Y-106564342D01*
X138239523Y-106564342D02*
X138239523Y-106469104D01*
X138239523Y-106469104D02*
X138191904Y-106373866D01*
X138191904Y-106373866D02*
X138144285Y-106326247D01*
X138144285Y-106326247D02*
X138049047Y-106278628D01*
X138049047Y-106278628D02*
X137858571Y-106231009D01*
X137858571Y-106231009D02*
X137763333Y-106183390D01*
X137763333Y-106183390D02*
X137715714Y-106135771D01*
X137715714Y-106135771D02*
X137668095Y-106040533D01*
X137668095Y-106040533D02*
X137668095Y-105945295D01*
X137668095Y-105945295D02*
X137715714Y-105850057D01*
X137715714Y-105850057D02*
X137763333Y-105802438D01*
X137763333Y-105802438D02*
X137858571Y-105754819D01*
X137858571Y-105754819D02*
X138096666Y-105754819D01*
X138096666Y-105754819D02*
X138239523Y-105802438D01*
X138715714Y-106754819D02*
X138906190Y-106754819D01*
X138906190Y-106754819D02*
X139001428Y-106707200D01*
X139001428Y-106707200D02*
X139049047Y-106659580D01*
X139049047Y-106659580D02*
X139144285Y-106516723D01*
X139144285Y-106516723D02*
X139191904Y-106326247D01*
X139191904Y-106326247D02*
X139191904Y-105945295D01*
X139191904Y-105945295D02*
X139144285Y-105850057D01*
X139144285Y-105850057D02*
X139096666Y-105802438D01*
X139096666Y-105802438D02*
X139001428Y-105754819D01*
X139001428Y-105754819D02*
X138810952Y-105754819D01*
X138810952Y-105754819D02*
X138715714Y-105802438D01*
X138715714Y-105802438D02*
X138668095Y-105850057D01*
X138668095Y-105850057D02*
X138620476Y-105945295D01*
X138620476Y-105945295D02*
X138620476Y-106183390D01*
X138620476Y-106183390D02*
X138668095Y-106278628D01*
X138668095Y-106278628D02*
X138715714Y-106326247D01*
X138715714Y-106326247D02*
X138810952Y-106373866D01*
X138810952Y-106373866D02*
X139001428Y-106373866D01*
X139001428Y-106373866D02*
X139096666Y-106326247D01*
X139096666Y-106326247D02*
X139144285Y-106278628D01*
X139144285Y-106278628D02*
X139191904Y-106183390D01*
X118618095Y-87657200D02*
X118760952Y-87704819D01*
X118760952Y-87704819D02*
X118999047Y-87704819D01*
X118999047Y-87704819D02*
X119094285Y-87657200D01*
X119094285Y-87657200D02*
X119141904Y-87609580D01*
X119141904Y-87609580D02*
X119189523Y-87514342D01*
X119189523Y-87514342D02*
X119189523Y-87419104D01*
X119189523Y-87419104D02*
X119141904Y-87323866D01*
X119141904Y-87323866D02*
X119094285Y-87276247D01*
X119094285Y-87276247D02*
X118999047Y-87228628D01*
X118999047Y-87228628D02*
X118808571Y-87181009D01*
X118808571Y-87181009D02*
X118713333Y-87133390D01*
X118713333Y-87133390D02*
X118665714Y-87085771D01*
X118665714Y-87085771D02*
X118618095Y-86990533D01*
X118618095Y-86990533D02*
X118618095Y-86895295D01*
X118618095Y-86895295D02*
X118665714Y-86800057D01*
X118665714Y-86800057D02*
X118713333Y-86752438D01*
X118713333Y-86752438D02*
X118808571Y-86704819D01*
X118808571Y-86704819D02*
X119046666Y-86704819D01*
X119046666Y-86704819D02*
X119189523Y-86752438D01*
X120094285Y-86704819D02*
X119618095Y-86704819D01*
X119618095Y-86704819D02*
X119570476Y-87181009D01*
X119570476Y-87181009D02*
X119618095Y-87133390D01*
X119618095Y-87133390D02*
X119713333Y-87085771D01*
X119713333Y-87085771D02*
X119951428Y-87085771D01*
X119951428Y-87085771D02*
X120046666Y-87133390D01*
X120046666Y-87133390D02*
X120094285Y-87181009D01*
X120094285Y-87181009D02*
X120141904Y-87276247D01*
X120141904Y-87276247D02*
X120141904Y-87514342D01*
X120141904Y-87514342D02*
X120094285Y-87609580D01*
X120094285Y-87609580D02*
X120046666Y-87657200D01*
X120046666Y-87657200D02*
X119951428Y-87704819D01*
X119951428Y-87704819D02*
X119713333Y-87704819D01*
X119713333Y-87704819D02*
X119618095Y-87657200D01*
X119618095Y-87657200D02*
X119570476Y-87609580D01*
X118618095Y-68607200D02*
X118760952Y-68654819D01*
X118760952Y-68654819D02*
X118999047Y-68654819D01*
X118999047Y-68654819D02*
X119094285Y-68607200D01*
X119094285Y-68607200D02*
X119141904Y-68559580D01*
X119141904Y-68559580D02*
X119189523Y-68464342D01*
X119189523Y-68464342D02*
X119189523Y-68369104D01*
X119189523Y-68369104D02*
X119141904Y-68273866D01*
X119141904Y-68273866D02*
X119094285Y-68226247D01*
X119094285Y-68226247D02*
X118999047Y-68178628D01*
X118999047Y-68178628D02*
X118808571Y-68131009D01*
X118808571Y-68131009D02*
X118713333Y-68083390D01*
X118713333Y-68083390D02*
X118665714Y-68035771D01*
X118665714Y-68035771D02*
X118618095Y-67940533D01*
X118618095Y-67940533D02*
X118618095Y-67845295D01*
X118618095Y-67845295D02*
X118665714Y-67750057D01*
X118665714Y-67750057D02*
X118713333Y-67702438D01*
X118713333Y-67702438D02*
X118808571Y-67654819D01*
X118808571Y-67654819D02*
X119046666Y-67654819D01*
X119046666Y-67654819D02*
X119189523Y-67702438D01*
X119570476Y-67750057D02*
X119618095Y-67702438D01*
X119618095Y-67702438D02*
X119713333Y-67654819D01*
X119713333Y-67654819D02*
X119951428Y-67654819D01*
X119951428Y-67654819D02*
X120046666Y-67702438D01*
X120046666Y-67702438D02*
X120094285Y-67750057D01*
X120094285Y-67750057D02*
X120141904Y-67845295D01*
X120141904Y-67845295D02*
X120141904Y-67940533D01*
X120141904Y-67940533D02*
X120094285Y-68083390D01*
X120094285Y-68083390D02*
X119522857Y-68654819D01*
X119522857Y-68654819D02*
X120141904Y-68654819D01*
X165398524Y-104343545D02*
X165398524Y-103543545D01*
X165398524Y-103543545D02*
X165589000Y-103543545D01*
X165589000Y-103543545D02*
X165703286Y-103581640D01*
X165703286Y-103581640D02*
X165779476Y-103657830D01*
X165779476Y-103657830D02*
X165817571Y-103734021D01*
X165817571Y-103734021D02*
X165855667Y-103886402D01*
X165855667Y-103886402D02*
X165855667Y-104000688D01*
X165855667Y-104000688D02*
X165817571Y-104153069D01*
X165817571Y-104153069D02*
X165779476Y-104229259D01*
X165779476Y-104229259D02*
X165703286Y-104305450D01*
X165703286Y-104305450D02*
X165589000Y-104343545D01*
X165589000Y-104343545D02*
X165398524Y-104343545D01*
X166122333Y-103543545D02*
X166655667Y-103543545D01*
X166655667Y-103543545D02*
X166312809Y-104343545D01*
X165855667Y-101727354D02*
X165817571Y-101765450D01*
X165817571Y-101765450D02*
X165703286Y-101803545D01*
X165703286Y-101803545D02*
X165627095Y-101803545D01*
X165627095Y-101803545D02*
X165512809Y-101765450D01*
X165512809Y-101765450D02*
X165436619Y-101689259D01*
X165436619Y-101689259D02*
X165398524Y-101613069D01*
X165398524Y-101613069D02*
X165360428Y-101460688D01*
X165360428Y-101460688D02*
X165360428Y-101346402D01*
X165360428Y-101346402D02*
X165398524Y-101194021D01*
X165398524Y-101194021D02*
X165436619Y-101117830D01*
X165436619Y-101117830D02*
X165512809Y-101041640D01*
X165512809Y-101041640D02*
X165627095Y-101003545D01*
X165627095Y-101003545D02*
X165703286Y-101003545D01*
X165703286Y-101003545D02*
X165817571Y-101041640D01*
X165817571Y-101041640D02*
X165855667Y-101079735D01*
X166541381Y-101003545D02*
X166389000Y-101003545D01*
X166389000Y-101003545D02*
X166312809Y-101041640D01*
X166312809Y-101041640D02*
X166274714Y-101079735D01*
X166274714Y-101079735D02*
X166198524Y-101194021D01*
X166198524Y-101194021D02*
X166160428Y-101346402D01*
X166160428Y-101346402D02*
X166160428Y-101651164D01*
X166160428Y-101651164D02*
X166198524Y-101727354D01*
X166198524Y-101727354D02*
X166236619Y-101765450D01*
X166236619Y-101765450D02*
X166312809Y-101803545D01*
X166312809Y-101803545D02*
X166465190Y-101803545D01*
X166465190Y-101803545D02*
X166541381Y-101765450D01*
X166541381Y-101765450D02*
X166579476Y-101727354D01*
X166579476Y-101727354D02*
X166617571Y-101651164D01*
X166617571Y-101651164D02*
X166617571Y-101460688D01*
X166617571Y-101460688D02*
X166579476Y-101384497D01*
X166579476Y-101384497D02*
X166541381Y-101346402D01*
X166541381Y-101346402D02*
X166465190Y-101308307D01*
X166465190Y-101308307D02*
X166312809Y-101308307D01*
X166312809Y-101308307D02*
X166236619Y-101346402D01*
X166236619Y-101346402D02*
X166198524Y-101384497D01*
X166198524Y-101384497D02*
X166160428Y-101460688D01*
X165436619Y-106464497D02*
X165703285Y-106464497D01*
X165817571Y-106883545D02*
X165436619Y-106883545D01*
X165436619Y-106883545D02*
X165436619Y-106083545D01*
X165436619Y-106083545D02*
X165817571Y-106083545D01*
X166503286Y-106083545D02*
X166350905Y-106083545D01*
X166350905Y-106083545D02*
X166274714Y-106121640D01*
X166274714Y-106121640D02*
X166236619Y-106159735D01*
X166236619Y-106159735D02*
X166160429Y-106274021D01*
X166160429Y-106274021D02*
X166122333Y-106426402D01*
X166122333Y-106426402D02*
X166122333Y-106731164D01*
X166122333Y-106731164D02*
X166160429Y-106807354D01*
X166160429Y-106807354D02*
X166198524Y-106845450D01*
X166198524Y-106845450D02*
X166274714Y-106883545D01*
X166274714Y-106883545D02*
X166427095Y-106883545D01*
X166427095Y-106883545D02*
X166503286Y-106845450D01*
X166503286Y-106845450D02*
X166541381Y-106807354D01*
X166541381Y-106807354D02*
X166579476Y-106731164D01*
X166579476Y-106731164D02*
X166579476Y-106540688D01*
X166579476Y-106540688D02*
X166541381Y-106464497D01*
X166541381Y-106464497D02*
X166503286Y-106426402D01*
X166503286Y-106426402D02*
X166427095Y-106388307D01*
X166427095Y-106388307D02*
X166274714Y-106388307D01*
X166274714Y-106388307D02*
X166198524Y-106426402D01*
X166198524Y-106426402D02*
X166160429Y-106464497D01*
X166160429Y-106464497D02*
X166122333Y-106540688D01*
X165599523Y-83862295D02*
X166056666Y-83862295D01*
X165828094Y-84662295D02*
X165828094Y-83862295D01*
X166247142Y-83862295D02*
X166780476Y-84662295D01*
X166780476Y-83862295D02*
X166247142Y-84662295D01*
X167237619Y-83862295D02*
X167313809Y-83862295D01*
X167313809Y-83862295D02*
X167390000Y-83900390D01*
X167390000Y-83900390D02*
X167428095Y-83938485D01*
X167428095Y-83938485D02*
X167466190Y-84014676D01*
X167466190Y-84014676D02*
X167504285Y-84167057D01*
X167504285Y-84167057D02*
X167504285Y-84357533D01*
X167504285Y-84357533D02*
X167466190Y-84509914D01*
X167466190Y-84509914D02*
X167428095Y-84586104D01*
X167428095Y-84586104D02*
X167390000Y-84624200D01*
X167390000Y-84624200D02*
X167313809Y-84662295D01*
X167313809Y-84662295D02*
X167237619Y-84662295D01*
X167237619Y-84662295D02*
X167161428Y-84624200D01*
X167161428Y-84624200D02*
X167123333Y-84586104D01*
X167123333Y-84586104D02*
X167085238Y-84509914D01*
X167085238Y-84509914D02*
X167047142Y-84357533D01*
X167047142Y-84357533D02*
X167047142Y-84167057D01*
X167047142Y-84167057D02*
X167085238Y-84014676D01*
X167085238Y-84014676D02*
X167123333Y-83938485D01*
X167123333Y-83938485D02*
X167161428Y-83900390D01*
X167161428Y-83900390D02*
X167237619Y-83862295D01*
X168418571Y-83824200D02*
X167732857Y-84852771D01*
X168685238Y-84662295D02*
X168685238Y-83862295D01*
X168685238Y-83862295D02*
X168875714Y-83862295D01*
X168875714Y-83862295D02*
X168990000Y-83900390D01*
X168990000Y-83900390D02*
X169066190Y-83976580D01*
X169066190Y-83976580D02*
X169104285Y-84052771D01*
X169104285Y-84052771D02*
X169142381Y-84205152D01*
X169142381Y-84205152D02*
X169142381Y-84319438D01*
X169142381Y-84319438D02*
X169104285Y-84471819D01*
X169104285Y-84471819D02*
X169066190Y-84548009D01*
X169066190Y-84548009D02*
X168990000Y-84624200D01*
X168990000Y-84624200D02*
X168875714Y-84662295D01*
X168875714Y-84662295D02*
X168685238Y-84662295D01*
X169409047Y-83862295D02*
X169904285Y-83862295D01*
X169904285Y-83862295D02*
X169637619Y-84167057D01*
X169637619Y-84167057D02*
X169751904Y-84167057D01*
X169751904Y-84167057D02*
X169828095Y-84205152D01*
X169828095Y-84205152D02*
X169866190Y-84243247D01*
X169866190Y-84243247D02*
X169904285Y-84319438D01*
X169904285Y-84319438D02*
X169904285Y-84509914D01*
X169904285Y-84509914D02*
X169866190Y-84586104D01*
X169866190Y-84586104D02*
X169828095Y-84624200D01*
X169828095Y-84624200D02*
X169751904Y-84662295D01*
X169751904Y-84662295D02*
X169523333Y-84662295D01*
X169523333Y-84662295D02*
X169447142Y-84624200D01*
X169447142Y-84624200D02*
X169409047Y-84586104D01*
X165398524Y-96723545D02*
X165398524Y-95923545D01*
X165398524Y-95923545D02*
X165589000Y-95923545D01*
X165589000Y-95923545D02*
X165703286Y-95961640D01*
X165703286Y-95961640D02*
X165779476Y-96037830D01*
X165779476Y-96037830D02*
X165817571Y-96114021D01*
X165817571Y-96114021D02*
X165855667Y-96266402D01*
X165855667Y-96266402D02*
X165855667Y-96380688D01*
X165855667Y-96380688D02*
X165817571Y-96533069D01*
X165817571Y-96533069D02*
X165779476Y-96609259D01*
X165779476Y-96609259D02*
X165703286Y-96685450D01*
X165703286Y-96685450D02*
X165589000Y-96723545D01*
X165589000Y-96723545D02*
X165398524Y-96723545D01*
X166350905Y-95923545D02*
X166427095Y-95923545D01*
X166427095Y-95923545D02*
X166503286Y-95961640D01*
X166503286Y-95961640D02*
X166541381Y-95999735D01*
X166541381Y-95999735D02*
X166579476Y-96075926D01*
X166579476Y-96075926D02*
X166617571Y-96228307D01*
X166617571Y-96228307D02*
X166617571Y-96418783D01*
X166617571Y-96418783D02*
X166579476Y-96571164D01*
X166579476Y-96571164D02*
X166541381Y-96647354D01*
X166541381Y-96647354D02*
X166503286Y-96685450D01*
X166503286Y-96685450D02*
X166427095Y-96723545D01*
X166427095Y-96723545D02*
X166350905Y-96723545D01*
X166350905Y-96723545D02*
X166274714Y-96685450D01*
X166274714Y-96685450D02*
X166236619Y-96647354D01*
X166236619Y-96647354D02*
X166198524Y-96571164D01*
X166198524Y-96571164D02*
X166160428Y-96418783D01*
X166160428Y-96418783D02*
X166160428Y-96228307D01*
X166160428Y-96228307D02*
X166198524Y-96075926D01*
X166198524Y-96075926D02*
X166236619Y-95999735D01*
X166236619Y-95999735D02*
X166274714Y-95961640D01*
X166274714Y-95961640D02*
X166350905Y-95923545D01*
X176587190Y-106464497D02*
X176701476Y-106502592D01*
X176701476Y-106502592D02*
X176739571Y-106540688D01*
X176739571Y-106540688D02*
X176777667Y-106616878D01*
X176777667Y-106616878D02*
X176777667Y-106731164D01*
X176777667Y-106731164D02*
X176739571Y-106807354D01*
X176739571Y-106807354D02*
X176701476Y-106845450D01*
X176701476Y-106845450D02*
X176625286Y-106883545D01*
X176625286Y-106883545D02*
X176320524Y-106883545D01*
X176320524Y-106883545D02*
X176320524Y-106083545D01*
X176320524Y-106083545D02*
X176587190Y-106083545D01*
X176587190Y-106083545D02*
X176663381Y-106121640D01*
X176663381Y-106121640D02*
X176701476Y-106159735D01*
X176701476Y-106159735D02*
X176739571Y-106235926D01*
X176739571Y-106235926D02*
X176739571Y-106312116D01*
X176739571Y-106312116D02*
X176701476Y-106388307D01*
X176701476Y-106388307D02*
X176663381Y-106426402D01*
X176663381Y-106426402D02*
X176587190Y-106464497D01*
X176587190Y-106464497D02*
X176320524Y-106464497D01*
X177044333Y-106083545D02*
X177539571Y-106083545D01*
X177539571Y-106083545D02*
X177272905Y-106388307D01*
X177272905Y-106388307D02*
X177387190Y-106388307D01*
X177387190Y-106388307D02*
X177463381Y-106426402D01*
X177463381Y-106426402D02*
X177501476Y-106464497D01*
X177501476Y-106464497D02*
X177539571Y-106540688D01*
X177539571Y-106540688D02*
X177539571Y-106731164D01*
X177539571Y-106731164D02*
X177501476Y-106807354D01*
X177501476Y-106807354D02*
X177463381Y-106845450D01*
X177463381Y-106845450D02*
X177387190Y-106883545D01*
X177387190Y-106883545D02*
X177158619Y-106883545D01*
X177158619Y-106883545D02*
X177082428Y-106845450D01*
X177082428Y-106845450D02*
X177044333Y-106807354D01*
X176644333Y-93764497D02*
X176377667Y-93764497D01*
X176377667Y-94183545D02*
X176377667Y-93383545D01*
X176377667Y-93383545D02*
X176758619Y-93383545D01*
X177406238Y-93650211D02*
X177406238Y-94183545D01*
X177215762Y-93345450D02*
X177025285Y-93916878D01*
X177025285Y-93916878D02*
X177520524Y-93916878D01*
X175844333Y-90843545D02*
X176111000Y-91643545D01*
X176111000Y-91643545D02*
X176377666Y-90843545D01*
X177101476Y-91567354D02*
X177063380Y-91605450D01*
X177063380Y-91605450D02*
X176949095Y-91643545D01*
X176949095Y-91643545D02*
X176872904Y-91643545D01*
X176872904Y-91643545D02*
X176758618Y-91605450D01*
X176758618Y-91605450D02*
X176682428Y-91529259D01*
X176682428Y-91529259D02*
X176644333Y-91453069D01*
X176644333Y-91453069D02*
X176606237Y-91300688D01*
X176606237Y-91300688D02*
X176606237Y-91186402D01*
X176606237Y-91186402D02*
X176644333Y-91034021D01*
X176644333Y-91034021D02*
X176682428Y-90957830D01*
X176682428Y-90957830D02*
X176758618Y-90881640D01*
X176758618Y-90881640D02*
X176872904Y-90843545D01*
X176872904Y-90843545D02*
X176949095Y-90843545D01*
X176949095Y-90843545D02*
X177063380Y-90881640D01*
X177063380Y-90881640D02*
X177101476Y-90919735D01*
X177901476Y-91567354D02*
X177863380Y-91605450D01*
X177863380Y-91605450D02*
X177749095Y-91643545D01*
X177749095Y-91643545D02*
X177672904Y-91643545D01*
X177672904Y-91643545D02*
X177558618Y-91605450D01*
X177558618Y-91605450D02*
X177482428Y-91529259D01*
X177482428Y-91529259D02*
X177444333Y-91453069D01*
X177444333Y-91453069D02*
X177406237Y-91300688D01*
X177406237Y-91300688D02*
X177406237Y-91186402D01*
X177406237Y-91186402D02*
X177444333Y-91034021D01*
X177444333Y-91034021D02*
X177482428Y-90957830D01*
X177482428Y-90957830D02*
X177558618Y-90881640D01*
X177558618Y-90881640D02*
X177672904Y-90843545D01*
X177672904Y-90843545D02*
X177749095Y-90843545D01*
X177749095Y-90843545D02*
X177863380Y-90881640D01*
X177863380Y-90881640D02*
X177901476Y-90919735D01*
X165665190Y-111544497D02*
X165779476Y-111582592D01*
X165779476Y-111582592D02*
X165817571Y-111620688D01*
X165817571Y-111620688D02*
X165855667Y-111696878D01*
X165855667Y-111696878D02*
X165855667Y-111811164D01*
X165855667Y-111811164D02*
X165817571Y-111887354D01*
X165817571Y-111887354D02*
X165779476Y-111925450D01*
X165779476Y-111925450D02*
X165703286Y-111963545D01*
X165703286Y-111963545D02*
X165398524Y-111963545D01*
X165398524Y-111963545D02*
X165398524Y-111163545D01*
X165398524Y-111163545D02*
X165665190Y-111163545D01*
X165665190Y-111163545D02*
X165741381Y-111201640D01*
X165741381Y-111201640D02*
X165779476Y-111239735D01*
X165779476Y-111239735D02*
X165817571Y-111315926D01*
X165817571Y-111315926D02*
X165817571Y-111392116D01*
X165817571Y-111392116D02*
X165779476Y-111468307D01*
X165779476Y-111468307D02*
X165741381Y-111506402D01*
X165741381Y-111506402D02*
X165665190Y-111544497D01*
X165665190Y-111544497D02*
X165398524Y-111544497D01*
X166579476Y-111163545D02*
X166198524Y-111163545D01*
X166198524Y-111163545D02*
X166160428Y-111544497D01*
X166160428Y-111544497D02*
X166198524Y-111506402D01*
X166198524Y-111506402D02*
X166274714Y-111468307D01*
X166274714Y-111468307D02*
X166465190Y-111468307D01*
X166465190Y-111468307D02*
X166541381Y-111506402D01*
X166541381Y-111506402D02*
X166579476Y-111544497D01*
X166579476Y-111544497D02*
X166617571Y-111620688D01*
X166617571Y-111620688D02*
X166617571Y-111811164D01*
X166617571Y-111811164D02*
X166579476Y-111887354D01*
X166579476Y-111887354D02*
X166541381Y-111925450D01*
X166541381Y-111925450D02*
X166465190Y-111963545D01*
X166465190Y-111963545D02*
X166274714Y-111963545D01*
X166274714Y-111963545D02*
X166198524Y-111925450D01*
X166198524Y-111925450D02*
X166160428Y-111887354D01*
X176644333Y-98844497D02*
X176377667Y-98844497D01*
X176377667Y-99263545D02*
X176377667Y-98463545D01*
X176377667Y-98463545D02*
X176758619Y-98463545D01*
X177406238Y-98463545D02*
X177253857Y-98463545D01*
X177253857Y-98463545D02*
X177177666Y-98501640D01*
X177177666Y-98501640D02*
X177139571Y-98539735D01*
X177139571Y-98539735D02*
X177063381Y-98654021D01*
X177063381Y-98654021D02*
X177025285Y-98806402D01*
X177025285Y-98806402D02*
X177025285Y-99111164D01*
X177025285Y-99111164D02*
X177063381Y-99187354D01*
X177063381Y-99187354D02*
X177101476Y-99225450D01*
X177101476Y-99225450D02*
X177177666Y-99263545D01*
X177177666Y-99263545D02*
X177330047Y-99263545D01*
X177330047Y-99263545D02*
X177406238Y-99225450D01*
X177406238Y-99225450D02*
X177444333Y-99187354D01*
X177444333Y-99187354D02*
X177482428Y-99111164D01*
X177482428Y-99111164D02*
X177482428Y-98920688D01*
X177482428Y-98920688D02*
X177444333Y-98844497D01*
X177444333Y-98844497D02*
X177406238Y-98806402D01*
X177406238Y-98806402D02*
X177330047Y-98768307D01*
X177330047Y-98768307D02*
X177177666Y-98768307D01*
X177177666Y-98768307D02*
X177101476Y-98806402D01*
X177101476Y-98806402D02*
X177063381Y-98844497D01*
X177063381Y-98844497D02*
X177025285Y-98920688D01*
X176587190Y-109004497D02*
X176701476Y-109042592D01*
X176701476Y-109042592D02*
X176739571Y-109080688D01*
X176739571Y-109080688D02*
X176777667Y-109156878D01*
X176777667Y-109156878D02*
X176777667Y-109271164D01*
X176777667Y-109271164D02*
X176739571Y-109347354D01*
X176739571Y-109347354D02*
X176701476Y-109385450D01*
X176701476Y-109385450D02*
X176625286Y-109423545D01*
X176625286Y-109423545D02*
X176320524Y-109423545D01*
X176320524Y-109423545D02*
X176320524Y-108623545D01*
X176320524Y-108623545D02*
X176587190Y-108623545D01*
X176587190Y-108623545D02*
X176663381Y-108661640D01*
X176663381Y-108661640D02*
X176701476Y-108699735D01*
X176701476Y-108699735D02*
X176739571Y-108775926D01*
X176739571Y-108775926D02*
X176739571Y-108852116D01*
X176739571Y-108852116D02*
X176701476Y-108928307D01*
X176701476Y-108928307D02*
X176663381Y-108966402D01*
X176663381Y-108966402D02*
X176587190Y-109004497D01*
X176587190Y-109004497D02*
X176320524Y-109004497D01*
X177082428Y-108699735D02*
X177120524Y-108661640D01*
X177120524Y-108661640D02*
X177196714Y-108623545D01*
X177196714Y-108623545D02*
X177387190Y-108623545D01*
X177387190Y-108623545D02*
X177463381Y-108661640D01*
X177463381Y-108661640D02*
X177501476Y-108699735D01*
X177501476Y-108699735D02*
X177539571Y-108775926D01*
X177539571Y-108775926D02*
X177539571Y-108852116D01*
X177539571Y-108852116D02*
X177501476Y-108966402D01*
X177501476Y-108966402D02*
X177044333Y-109423545D01*
X177044333Y-109423545D02*
X177539571Y-109423545D01*
X176644333Y-101384497D02*
X176377667Y-101384497D01*
X176377667Y-101803545D02*
X176377667Y-101003545D01*
X176377667Y-101003545D02*
X176758619Y-101003545D01*
X176987190Y-101003545D02*
X177520524Y-101003545D01*
X177520524Y-101003545D02*
X177177666Y-101803545D01*
X165379476Y-90881640D02*
X165303286Y-90843545D01*
X165303286Y-90843545D02*
X165189000Y-90843545D01*
X165189000Y-90843545D02*
X165074714Y-90881640D01*
X165074714Y-90881640D02*
X164998524Y-90957830D01*
X164998524Y-90957830D02*
X164960429Y-91034021D01*
X164960429Y-91034021D02*
X164922333Y-91186402D01*
X164922333Y-91186402D02*
X164922333Y-91300688D01*
X164922333Y-91300688D02*
X164960429Y-91453069D01*
X164960429Y-91453069D02*
X164998524Y-91529259D01*
X164998524Y-91529259D02*
X165074714Y-91605450D01*
X165074714Y-91605450D02*
X165189000Y-91643545D01*
X165189000Y-91643545D02*
X165265191Y-91643545D01*
X165265191Y-91643545D02*
X165379476Y-91605450D01*
X165379476Y-91605450D02*
X165417572Y-91567354D01*
X165417572Y-91567354D02*
X165417572Y-91300688D01*
X165417572Y-91300688D02*
X165265191Y-91300688D01*
X165760429Y-91643545D02*
X165760429Y-90843545D01*
X165760429Y-90843545D02*
X166217572Y-91643545D01*
X166217572Y-91643545D02*
X166217572Y-90843545D01*
X166598524Y-91643545D02*
X166598524Y-90843545D01*
X166598524Y-90843545D02*
X166789000Y-90843545D01*
X166789000Y-90843545D02*
X166903286Y-90881640D01*
X166903286Y-90881640D02*
X166979476Y-90957830D01*
X166979476Y-90957830D02*
X167017571Y-91034021D01*
X167017571Y-91034021D02*
X167055667Y-91186402D01*
X167055667Y-91186402D02*
X167055667Y-91300688D01*
X167055667Y-91300688D02*
X167017571Y-91453069D01*
X167017571Y-91453069D02*
X166979476Y-91529259D01*
X166979476Y-91529259D02*
X166903286Y-91605450D01*
X166903286Y-91605450D02*
X166789000Y-91643545D01*
X166789000Y-91643545D02*
X166598524Y-91643545D01*
X165665190Y-109004497D02*
X165779476Y-109042592D01*
X165779476Y-109042592D02*
X165817571Y-109080688D01*
X165817571Y-109080688D02*
X165855667Y-109156878D01*
X165855667Y-109156878D02*
X165855667Y-109271164D01*
X165855667Y-109271164D02*
X165817571Y-109347354D01*
X165817571Y-109347354D02*
X165779476Y-109385450D01*
X165779476Y-109385450D02*
X165703286Y-109423545D01*
X165703286Y-109423545D02*
X165398524Y-109423545D01*
X165398524Y-109423545D02*
X165398524Y-108623545D01*
X165398524Y-108623545D02*
X165665190Y-108623545D01*
X165665190Y-108623545D02*
X165741381Y-108661640D01*
X165741381Y-108661640D02*
X165779476Y-108699735D01*
X165779476Y-108699735D02*
X165817571Y-108775926D01*
X165817571Y-108775926D02*
X165817571Y-108852116D01*
X165817571Y-108852116D02*
X165779476Y-108928307D01*
X165779476Y-108928307D02*
X165741381Y-108966402D01*
X165741381Y-108966402D02*
X165665190Y-109004497D01*
X165665190Y-109004497D02*
X165398524Y-109004497D01*
X166541381Y-108890211D02*
X166541381Y-109423545D01*
X166350905Y-108585450D02*
X166160428Y-109156878D01*
X166160428Y-109156878D02*
X166655667Y-109156878D01*
X176301476Y-85801640D02*
X176225286Y-85763545D01*
X176225286Y-85763545D02*
X176111000Y-85763545D01*
X176111000Y-85763545D02*
X175996714Y-85801640D01*
X175996714Y-85801640D02*
X175920524Y-85877830D01*
X175920524Y-85877830D02*
X175882429Y-85954021D01*
X175882429Y-85954021D02*
X175844333Y-86106402D01*
X175844333Y-86106402D02*
X175844333Y-86220688D01*
X175844333Y-86220688D02*
X175882429Y-86373069D01*
X175882429Y-86373069D02*
X175920524Y-86449259D01*
X175920524Y-86449259D02*
X175996714Y-86525450D01*
X175996714Y-86525450D02*
X176111000Y-86563545D01*
X176111000Y-86563545D02*
X176187191Y-86563545D01*
X176187191Y-86563545D02*
X176301476Y-86525450D01*
X176301476Y-86525450D02*
X176339572Y-86487354D01*
X176339572Y-86487354D02*
X176339572Y-86220688D01*
X176339572Y-86220688D02*
X176187191Y-86220688D01*
X176682429Y-86563545D02*
X176682429Y-85763545D01*
X176682429Y-85763545D02*
X177139572Y-86563545D01*
X177139572Y-86563545D02*
X177139572Y-85763545D01*
X177520524Y-86563545D02*
X177520524Y-85763545D01*
X177520524Y-85763545D02*
X177711000Y-85763545D01*
X177711000Y-85763545D02*
X177825286Y-85801640D01*
X177825286Y-85801640D02*
X177901476Y-85877830D01*
X177901476Y-85877830D02*
X177939571Y-85954021D01*
X177939571Y-85954021D02*
X177977667Y-86106402D01*
X177977667Y-86106402D02*
X177977667Y-86220688D01*
X177977667Y-86220688D02*
X177939571Y-86373069D01*
X177939571Y-86373069D02*
X177901476Y-86449259D01*
X177901476Y-86449259D02*
X177825286Y-86525450D01*
X177825286Y-86525450D02*
X177711000Y-86563545D01*
X177711000Y-86563545D02*
X177520524Y-86563545D01*
X165398524Y-99263545D02*
X165398524Y-98463545D01*
X165398524Y-98463545D02*
X165589000Y-98463545D01*
X165589000Y-98463545D02*
X165703286Y-98501640D01*
X165703286Y-98501640D02*
X165779476Y-98577830D01*
X165779476Y-98577830D02*
X165817571Y-98654021D01*
X165817571Y-98654021D02*
X165855667Y-98806402D01*
X165855667Y-98806402D02*
X165855667Y-98920688D01*
X165855667Y-98920688D02*
X165817571Y-99073069D01*
X165817571Y-99073069D02*
X165779476Y-99149259D01*
X165779476Y-99149259D02*
X165703286Y-99225450D01*
X165703286Y-99225450D02*
X165589000Y-99263545D01*
X165589000Y-99263545D02*
X165398524Y-99263545D01*
X166541381Y-98730211D02*
X166541381Y-99263545D01*
X166350905Y-98425450D02*
X166160428Y-98996878D01*
X166160428Y-98996878D02*
X166655667Y-98996878D01*
X176587190Y-111544497D02*
X176701476Y-111582592D01*
X176701476Y-111582592D02*
X176739571Y-111620688D01*
X176739571Y-111620688D02*
X176777667Y-111696878D01*
X176777667Y-111696878D02*
X176777667Y-111811164D01*
X176777667Y-111811164D02*
X176739571Y-111887354D01*
X176739571Y-111887354D02*
X176701476Y-111925450D01*
X176701476Y-111925450D02*
X176625286Y-111963545D01*
X176625286Y-111963545D02*
X176320524Y-111963545D01*
X176320524Y-111963545D02*
X176320524Y-111163545D01*
X176320524Y-111163545D02*
X176587190Y-111163545D01*
X176587190Y-111163545D02*
X176663381Y-111201640D01*
X176663381Y-111201640D02*
X176701476Y-111239735D01*
X176701476Y-111239735D02*
X176739571Y-111315926D01*
X176739571Y-111315926D02*
X176739571Y-111392116D01*
X176739571Y-111392116D02*
X176701476Y-111468307D01*
X176701476Y-111468307D02*
X176663381Y-111506402D01*
X176663381Y-111506402D02*
X176587190Y-111544497D01*
X176587190Y-111544497D02*
X176320524Y-111544497D01*
X177463381Y-111163545D02*
X177311000Y-111163545D01*
X177311000Y-111163545D02*
X177234809Y-111201640D01*
X177234809Y-111201640D02*
X177196714Y-111239735D01*
X177196714Y-111239735D02*
X177120524Y-111354021D01*
X177120524Y-111354021D02*
X177082428Y-111506402D01*
X177082428Y-111506402D02*
X177082428Y-111811164D01*
X177082428Y-111811164D02*
X177120524Y-111887354D01*
X177120524Y-111887354D02*
X177158619Y-111925450D01*
X177158619Y-111925450D02*
X177234809Y-111963545D01*
X177234809Y-111963545D02*
X177387190Y-111963545D01*
X177387190Y-111963545D02*
X177463381Y-111925450D01*
X177463381Y-111925450D02*
X177501476Y-111887354D01*
X177501476Y-111887354D02*
X177539571Y-111811164D01*
X177539571Y-111811164D02*
X177539571Y-111620688D01*
X177539571Y-111620688D02*
X177501476Y-111544497D01*
X177501476Y-111544497D02*
X177463381Y-111506402D01*
X177463381Y-111506402D02*
X177387190Y-111468307D01*
X177387190Y-111468307D02*
X177234809Y-111468307D01*
X177234809Y-111468307D02*
X177158619Y-111506402D01*
X177158619Y-111506402D02*
X177120524Y-111544497D01*
X177120524Y-111544497D02*
X177082428Y-111620688D01*
X176587190Y-103924497D02*
X176701476Y-103962592D01*
X176701476Y-103962592D02*
X176739571Y-104000688D01*
X176739571Y-104000688D02*
X176777667Y-104076878D01*
X176777667Y-104076878D02*
X176777667Y-104191164D01*
X176777667Y-104191164D02*
X176739571Y-104267354D01*
X176739571Y-104267354D02*
X176701476Y-104305450D01*
X176701476Y-104305450D02*
X176625286Y-104343545D01*
X176625286Y-104343545D02*
X176320524Y-104343545D01*
X176320524Y-104343545D02*
X176320524Y-103543545D01*
X176320524Y-103543545D02*
X176587190Y-103543545D01*
X176587190Y-103543545D02*
X176663381Y-103581640D01*
X176663381Y-103581640D02*
X176701476Y-103619735D01*
X176701476Y-103619735D02*
X176739571Y-103695926D01*
X176739571Y-103695926D02*
X176739571Y-103772116D01*
X176739571Y-103772116D02*
X176701476Y-103848307D01*
X176701476Y-103848307D02*
X176663381Y-103886402D01*
X176663381Y-103886402D02*
X176587190Y-103924497D01*
X176587190Y-103924497D02*
X176320524Y-103924497D01*
X177539571Y-104343545D02*
X177082428Y-104343545D01*
X177311000Y-104343545D02*
X177311000Y-103543545D01*
X177311000Y-103543545D02*
X177234809Y-103657830D01*
X177234809Y-103657830D02*
X177158619Y-103734021D01*
X177158619Y-103734021D02*
X177082428Y-103772116D01*
X176649786Y-89035450D02*
X176764072Y-89073545D01*
X176764072Y-89073545D02*
X176954548Y-89073545D01*
X176954548Y-89073545D02*
X177030739Y-89035450D01*
X177030739Y-89035450D02*
X177068834Y-88997354D01*
X177068834Y-88997354D02*
X177106929Y-88921164D01*
X177106929Y-88921164D02*
X177106929Y-88844973D01*
X177106929Y-88844973D02*
X177068834Y-88768783D01*
X177068834Y-88768783D02*
X177030739Y-88730688D01*
X177030739Y-88730688D02*
X176954548Y-88692592D01*
X176954548Y-88692592D02*
X176802167Y-88654497D01*
X176802167Y-88654497D02*
X176725977Y-88616402D01*
X176725977Y-88616402D02*
X176687882Y-88578307D01*
X176687882Y-88578307D02*
X176649786Y-88502116D01*
X176649786Y-88502116D02*
X176649786Y-88425926D01*
X176649786Y-88425926D02*
X176687882Y-88349735D01*
X176687882Y-88349735D02*
X176725977Y-88311640D01*
X176725977Y-88311640D02*
X176802167Y-88273545D01*
X176802167Y-88273545D02*
X176992644Y-88273545D01*
X176992644Y-88273545D02*
X177106929Y-88311640D01*
X177335501Y-88273545D02*
X177792644Y-88273545D01*
X177564072Y-89073545D02*
X177564072Y-88273545D01*
X165398524Y-94183545D02*
X165398524Y-93383545D01*
X165398524Y-93383545D02*
X165589000Y-93383545D01*
X165589000Y-93383545D02*
X165703286Y-93421640D01*
X165703286Y-93421640D02*
X165779476Y-93497830D01*
X165779476Y-93497830D02*
X165817571Y-93574021D01*
X165817571Y-93574021D02*
X165855667Y-93726402D01*
X165855667Y-93726402D02*
X165855667Y-93840688D01*
X165855667Y-93840688D02*
X165817571Y-93993069D01*
X165817571Y-93993069D02*
X165779476Y-94069259D01*
X165779476Y-94069259D02*
X165703286Y-94145450D01*
X165703286Y-94145450D02*
X165589000Y-94183545D01*
X165589000Y-94183545D02*
X165398524Y-94183545D01*
X166617571Y-94183545D02*
X166160428Y-94183545D01*
X166389000Y-94183545D02*
X166389000Y-93383545D01*
X166389000Y-93383545D02*
X166312809Y-93497830D01*
X166312809Y-93497830D02*
X166236619Y-93574021D01*
X166236619Y-93574021D02*
X166160428Y-93612116D01*
X165379476Y-88341640D02*
X165303286Y-88303545D01*
X165303286Y-88303545D02*
X165189000Y-88303545D01*
X165189000Y-88303545D02*
X165074714Y-88341640D01*
X165074714Y-88341640D02*
X164998524Y-88417830D01*
X164998524Y-88417830D02*
X164960429Y-88494021D01*
X164960429Y-88494021D02*
X164922333Y-88646402D01*
X164922333Y-88646402D02*
X164922333Y-88760688D01*
X164922333Y-88760688D02*
X164960429Y-88913069D01*
X164960429Y-88913069D02*
X164998524Y-88989259D01*
X164998524Y-88989259D02*
X165074714Y-89065450D01*
X165074714Y-89065450D02*
X165189000Y-89103545D01*
X165189000Y-89103545D02*
X165265191Y-89103545D01*
X165265191Y-89103545D02*
X165379476Y-89065450D01*
X165379476Y-89065450D02*
X165417572Y-89027354D01*
X165417572Y-89027354D02*
X165417572Y-88760688D01*
X165417572Y-88760688D02*
X165265191Y-88760688D01*
X165760429Y-89103545D02*
X165760429Y-88303545D01*
X165760429Y-88303545D02*
X166217572Y-89103545D01*
X166217572Y-89103545D02*
X166217572Y-88303545D01*
X166598524Y-89103545D02*
X166598524Y-88303545D01*
X166598524Y-88303545D02*
X166789000Y-88303545D01*
X166789000Y-88303545D02*
X166903286Y-88341640D01*
X166903286Y-88341640D02*
X166979476Y-88417830D01*
X166979476Y-88417830D02*
X167017571Y-88494021D01*
X167017571Y-88494021D02*
X167055667Y-88646402D01*
X167055667Y-88646402D02*
X167055667Y-88760688D01*
X167055667Y-88760688D02*
X167017571Y-88913069D01*
X167017571Y-88913069D02*
X166979476Y-88989259D01*
X166979476Y-88989259D02*
X166903286Y-89065450D01*
X166903286Y-89065450D02*
X166789000Y-89103545D01*
X166789000Y-89103545D02*
X166598524Y-89103545D01*
X176644333Y-96304497D02*
X176377667Y-96304497D01*
X176377667Y-96723545D02*
X176377667Y-95923545D01*
X176377667Y-95923545D02*
X176758619Y-95923545D01*
X177444333Y-95923545D02*
X177063381Y-95923545D01*
X177063381Y-95923545D02*
X177025285Y-96304497D01*
X177025285Y-96304497D02*
X177063381Y-96266402D01*
X177063381Y-96266402D02*
X177139571Y-96228307D01*
X177139571Y-96228307D02*
X177330047Y-96228307D01*
X177330047Y-96228307D02*
X177406238Y-96266402D01*
X177406238Y-96266402D02*
X177444333Y-96304497D01*
X177444333Y-96304497D02*
X177482428Y-96380688D01*
X177482428Y-96380688D02*
X177482428Y-96571164D01*
X177482428Y-96571164D02*
X177444333Y-96647354D01*
X177444333Y-96647354D02*
X177406238Y-96685450D01*
X177406238Y-96685450D02*
X177330047Y-96723545D01*
X177330047Y-96723545D02*
X177139571Y-96723545D01*
X177139571Y-96723545D02*
X177063381Y-96685450D01*
X177063381Y-96685450D02*
X177025285Y-96647354D01*
X165398524Y-86563545D02*
X165398524Y-85763545D01*
X165398524Y-85763545D02*
X165589000Y-85763545D01*
X165589000Y-85763545D02*
X165703286Y-85801640D01*
X165703286Y-85801640D02*
X165779476Y-85877830D01*
X165779476Y-85877830D02*
X165817571Y-85954021D01*
X165817571Y-85954021D02*
X165855667Y-86106402D01*
X165855667Y-86106402D02*
X165855667Y-86220688D01*
X165855667Y-86220688D02*
X165817571Y-86373069D01*
X165817571Y-86373069D02*
X165779476Y-86449259D01*
X165779476Y-86449259D02*
X165703286Y-86525450D01*
X165703286Y-86525450D02*
X165589000Y-86563545D01*
X165589000Y-86563545D02*
X165398524Y-86563545D01*
X166160428Y-85839735D02*
X166198524Y-85801640D01*
X166198524Y-85801640D02*
X166274714Y-85763545D01*
X166274714Y-85763545D02*
X166465190Y-85763545D01*
X166465190Y-85763545D02*
X166541381Y-85801640D01*
X166541381Y-85801640D02*
X166579476Y-85839735D01*
X166579476Y-85839735D02*
X166617571Y-85915926D01*
X166617571Y-85915926D02*
X166617571Y-85992116D01*
X166617571Y-85992116D02*
X166579476Y-86106402D01*
X166579476Y-86106402D02*
X166122333Y-86563545D01*
X166122333Y-86563545D02*
X166617571Y-86563545D01*
X176358619Y-84023545D02*
X176091952Y-83642592D01*
X175901476Y-84023545D02*
X175901476Y-83223545D01*
X175901476Y-83223545D02*
X176206238Y-83223545D01*
X176206238Y-83223545D02*
X176282428Y-83261640D01*
X176282428Y-83261640D02*
X176320523Y-83299735D01*
X176320523Y-83299735D02*
X176358619Y-83375926D01*
X176358619Y-83375926D02*
X176358619Y-83490211D01*
X176358619Y-83490211D02*
X176320523Y-83566402D01*
X176320523Y-83566402D02*
X176282428Y-83604497D01*
X176282428Y-83604497D02*
X176206238Y-83642592D01*
X176206238Y-83642592D02*
X175901476Y-83642592D01*
X176663380Y-83794973D02*
X177044333Y-83794973D01*
X176587190Y-84023545D02*
X176853857Y-83223545D01*
X176853857Y-83223545D02*
X177120523Y-84023545D01*
X177310999Y-83223545D02*
X177501475Y-84023545D01*
X177501475Y-84023545D02*
X177653856Y-83452116D01*
X177653856Y-83452116D02*
X177806237Y-84023545D01*
X177806237Y-84023545D02*
X177996714Y-83223545D01*
X118618095Y-106707200D02*
X118760952Y-106754819D01*
X118760952Y-106754819D02*
X118999047Y-106754819D01*
X118999047Y-106754819D02*
X119094285Y-106707200D01*
X119094285Y-106707200D02*
X119141904Y-106659580D01*
X119141904Y-106659580D02*
X119189523Y-106564342D01*
X119189523Y-106564342D02*
X119189523Y-106469104D01*
X119189523Y-106469104D02*
X119141904Y-106373866D01*
X119141904Y-106373866D02*
X119094285Y-106326247D01*
X119094285Y-106326247D02*
X118999047Y-106278628D01*
X118999047Y-106278628D02*
X118808571Y-106231009D01*
X118808571Y-106231009D02*
X118713333Y-106183390D01*
X118713333Y-106183390D02*
X118665714Y-106135771D01*
X118665714Y-106135771D02*
X118618095Y-106040533D01*
X118618095Y-106040533D02*
X118618095Y-105945295D01*
X118618095Y-105945295D02*
X118665714Y-105850057D01*
X118665714Y-105850057D02*
X118713333Y-105802438D01*
X118713333Y-105802438D02*
X118808571Y-105754819D01*
X118808571Y-105754819D02*
X119046666Y-105754819D01*
X119046666Y-105754819D02*
X119189523Y-105802438D01*
X119760952Y-106183390D02*
X119665714Y-106135771D01*
X119665714Y-106135771D02*
X119618095Y-106088152D01*
X119618095Y-106088152D02*
X119570476Y-105992914D01*
X119570476Y-105992914D02*
X119570476Y-105945295D01*
X119570476Y-105945295D02*
X119618095Y-105850057D01*
X119618095Y-105850057D02*
X119665714Y-105802438D01*
X119665714Y-105802438D02*
X119760952Y-105754819D01*
X119760952Y-105754819D02*
X119951428Y-105754819D01*
X119951428Y-105754819D02*
X120046666Y-105802438D01*
X120046666Y-105802438D02*
X120094285Y-105850057D01*
X120094285Y-105850057D02*
X120141904Y-105945295D01*
X120141904Y-105945295D02*
X120141904Y-105992914D01*
X120141904Y-105992914D02*
X120094285Y-106088152D01*
X120094285Y-106088152D02*
X120046666Y-106135771D01*
X120046666Y-106135771D02*
X119951428Y-106183390D01*
X119951428Y-106183390D02*
X119760952Y-106183390D01*
X119760952Y-106183390D02*
X119665714Y-106231009D01*
X119665714Y-106231009D02*
X119618095Y-106278628D01*
X119618095Y-106278628D02*
X119570476Y-106373866D01*
X119570476Y-106373866D02*
X119570476Y-106564342D01*
X119570476Y-106564342D02*
X119618095Y-106659580D01*
X119618095Y-106659580D02*
X119665714Y-106707200D01*
X119665714Y-106707200D02*
X119760952Y-106754819D01*
X119760952Y-106754819D02*
X119951428Y-106754819D01*
X119951428Y-106754819D02*
X120046666Y-106707200D01*
X120046666Y-106707200D02*
X120094285Y-106659580D01*
X120094285Y-106659580D02*
X120141904Y-106564342D01*
X120141904Y-106564342D02*
X120141904Y-106373866D01*
X120141904Y-106373866D02*
X120094285Y-106278628D01*
X120094285Y-106278628D02*
X120046666Y-106231009D01*
X120046666Y-106231009D02*
X119951428Y-106183390D01*
X99568095Y-106707200D02*
X99710952Y-106754819D01*
X99710952Y-106754819D02*
X99949047Y-106754819D01*
X99949047Y-106754819D02*
X100044285Y-106707200D01*
X100044285Y-106707200D02*
X100091904Y-106659580D01*
X100091904Y-106659580D02*
X100139523Y-106564342D01*
X100139523Y-106564342D02*
X100139523Y-106469104D01*
X100139523Y-106469104D02*
X100091904Y-106373866D01*
X100091904Y-106373866D02*
X100044285Y-106326247D01*
X100044285Y-106326247D02*
X99949047Y-106278628D01*
X99949047Y-106278628D02*
X99758571Y-106231009D01*
X99758571Y-106231009D02*
X99663333Y-106183390D01*
X99663333Y-106183390D02*
X99615714Y-106135771D01*
X99615714Y-106135771D02*
X99568095Y-106040533D01*
X99568095Y-106040533D02*
X99568095Y-105945295D01*
X99568095Y-105945295D02*
X99615714Y-105850057D01*
X99615714Y-105850057D02*
X99663333Y-105802438D01*
X99663333Y-105802438D02*
X99758571Y-105754819D01*
X99758571Y-105754819D02*
X99996666Y-105754819D01*
X99996666Y-105754819D02*
X100139523Y-105802438D01*
X100472857Y-105754819D02*
X101139523Y-105754819D01*
X101139523Y-105754819D02*
X100710952Y-106754819D01*
X137668095Y-68607200D02*
X137810952Y-68654819D01*
X137810952Y-68654819D02*
X138049047Y-68654819D01*
X138049047Y-68654819D02*
X138144285Y-68607200D01*
X138144285Y-68607200D02*
X138191904Y-68559580D01*
X138191904Y-68559580D02*
X138239523Y-68464342D01*
X138239523Y-68464342D02*
X138239523Y-68369104D01*
X138239523Y-68369104D02*
X138191904Y-68273866D01*
X138191904Y-68273866D02*
X138144285Y-68226247D01*
X138144285Y-68226247D02*
X138049047Y-68178628D01*
X138049047Y-68178628D02*
X137858571Y-68131009D01*
X137858571Y-68131009D02*
X137763333Y-68083390D01*
X137763333Y-68083390D02*
X137715714Y-68035771D01*
X137715714Y-68035771D02*
X137668095Y-67940533D01*
X137668095Y-67940533D02*
X137668095Y-67845295D01*
X137668095Y-67845295D02*
X137715714Y-67750057D01*
X137715714Y-67750057D02*
X137763333Y-67702438D01*
X137763333Y-67702438D02*
X137858571Y-67654819D01*
X137858571Y-67654819D02*
X138096666Y-67654819D01*
X138096666Y-67654819D02*
X138239523Y-67702438D01*
X138572857Y-67654819D02*
X139191904Y-67654819D01*
X139191904Y-67654819D02*
X138858571Y-68035771D01*
X138858571Y-68035771D02*
X139001428Y-68035771D01*
X139001428Y-68035771D02*
X139096666Y-68083390D01*
X139096666Y-68083390D02*
X139144285Y-68131009D01*
X139144285Y-68131009D02*
X139191904Y-68226247D01*
X139191904Y-68226247D02*
X139191904Y-68464342D01*
X139191904Y-68464342D02*
X139144285Y-68559580D01*
X139144285Y-68559580D02*
X139096666Y-68607200D01*
X139096666Y-68607200D02*
X139001428Y-68654819D01*
X139001428Y-68654819D02*
X138715714Y-68654819D01*
X138715714Y-68654819D02*
X138620476Y-68607200D01*
X138620476Y-68607200D02*
X138572857Y-68559580D01*
X99568095Y-68607200D02*
X99710952Y-68654819D01*
X99710952Y-68654819D02*
X99949047Y-68654819D01*
X99949047Y-68654819D02*
X100044285Y-68607200D01*
X100044285Y-68607200D02*
X100091904Y-68559580D01*
X100091904Y-68559580D02*
X100139523Y-68464342D01*
X100139523Y-68464342D02*
X100139523Y-68369104D01*
X100139523Y-68369104D02*
X100091904Y-68273866D01*
X100091904Y-68273866D02*
X100044285Y-68226247D01*
X100044285Y-68226247D02*
X99949047Y-68178628D01*
X99949047Y-68178628D02*
X99758571Y-68131009D01*
X99758571Y-68131009D02*
X99663333Y-68083390D01*
X99663333Y-68083390D02*
X99615714Y-68035771D01*
X99615714Y-68035771D02*
X99568095Y-67940533D01*
X99568095Y-67940533D02*
X99568095Y-67845295D01*
X99568095Y-67845295D02*
X99615714Y-67750057D01*
X99615714Y-67750057D02*
X99663333Y-67702438D01*
X99663333Y-67702438D02*
X99758571Y-67654819D01*
X99758571Y-67654819D02*
X99996666Y-67654819D01*
X99996666Y-67654819D02*
X100139523Y-67702438D01*
X101091904Y-68654819D02*
X100520476Y-68654819D01*
X100806190Y-68654819D02*
X100806190Y-67654819D01*
X100806190Y-67654819D02*
X100710952Y-67797676D01*
X100710952Y-67797676D02*
X100615714Y-67892914D01*
X100615714Y-67892914D02*
X100520476Y-67940533D01*
D12*
%TO.C,S4*%
X93230000Y-88150000D02*
X93230000Y-102350000D01*
X93230000Y-102350000D02*
X107430000Y-102350000D01*
X107430000Y-88150000D02*
X93230000Y-88150000D01*
X107430000Y-102350000D02*
X107430000Y-88150000D01*
%TO.C,S6*%
X131330000Y-88150000D02*
X131330000Y-102350000D01*
X131330000Y-102350000D02*
X145530000Y-102350000D01*
X145530000Y-88150000D02*
X131330000Y-88150000D01*
X145530000Y-102350000D02*
X145530000Y-88150000D01*
%TO.C,S9*%
X131330000Y-107200000D02*
X131330000Y-121400000D01*
X131330000Y-121400000D02*
X145530000Y-121400000D01*
X145530000Y-107200000D02*
X131330000Y-107200000D01*
X145530000Y-121400000D02*
X145530000Y-107200000D01*
%TO.C,S5*%
X112280000Y-88150000D02*
X112280000Y-102350000D01*
X112280000Y-102350000D02*
X126480000Y-102350000D01*
X126480000Y-88150000D02*
X112280000Y-88150000D01*
X126480000Y-102350000D02*
X126480000Y-88150000D01*
%TO.C,S2*%
X112280000Y-69100000D02*
X112280000Y-83300000D01*
X112280000Y-83300000D02*
X126480000Y-83300000D01*
X126480000Y-69100000D02*
X112280000Y-69100000D01*
X126480000Y-83300000D02*
X126480000Y-69100000D01*
D13*
%TO.C,U1*%
X162560000Y-79851250D02*
X162560000Y-112871250D01*
X162560000Y-112871250D02*
X180340000Y-112871250D01*
X165100000Y-82391250D02*
X162560000Y-82391250D01*
X165100000Y-82391250D02*
X165100000Y-84931250D01*
X165100000Y-84931250D02*
X162560000Y-84931250D01*
X180340000Y-79851250D02*
X162560000Y-79851250D01*
X180340000Y-112871250D02*
X180340000Y-79851250D01*
D11*
X175981568Y-89070610D02*
X175881568Y-89070610D01*
X175881568Y-88270610D01*
X175981568Y-88270610D01*
X175981568Y-89070610D01*
G36*
X175981568Y-89070610D02*
G01*
X175881568Y-89070610D01*
X175881568Y-88270610D01*
X175981568Y-88270610D01*
X175981568Y-89070610D01*
G37*
X176181568Y-88770610D02*
X176081568Y-88770610D01*
X176081568Y-88670610D01*
X176181568Y-88670610D01*
X176181568Y-88770610D01*
G36*
X176181568Y-88770610D02*
G01*
X176081568Y-88770610D01*
X176081568Y-88670610D01*
X176181568Y-88670610D01*
X176181568Y-88770610D01*
G37*
X176381568Y-88370610D02*
X175881568Y-88370610D01*
X175881568Y-88270610D01*
X176381568Y-88270610D01*
X176381568Y-88370610D01*
G36*
X176381568Y-88370610D02*
G01*
X175881568Y-88370610D01*
X175881568Y-88270610D01*
X176381568Y-88270610D01*
X176381568Y-88370610D01*
G37*
X176381568Y-88570610D02*
X176281568Y-88570610D01*
X176281568Y-88270610D01*
X176381568Y-88270610D01*
X176381568Y-88570610D01*
G36*
X176381568Y-88570610D02*
G01*
X176281568Y-88570610D01*
X176281568Y-88270610D01*
X176381568Y-88270610D01*
X176381568Y-88570610D01*
G37*
X176381568Y-89070610D02*
X176281568Y-89070610D01*
X176281568Y-88870610D01*
X176381568Y-88870610D01*
X176381568Y-89070610D01*
G36*
X176381568Y-89070610D02*
G01*
X176281568Y-89070610D01*
X176281568Y-88870610D01*
X176381568Y-88870610D01*
X176381568Y-89070610D01*
G37*
D12*
%TO.C,S8*%
X112280000Y-107200000D02*
X112280000Y-121400000D01*
X112280000Y-121400000D02*
X126480000Y-121400000D01*
X126480000Y-107200000D02*
X112280000Y-107200000D01*
X126480000Y-121400000D02*
X126480000Y-107200000D01*
%TO.C,S7*%
X93230000Y-107200000D02*
X93230000Y-121400000D01*
X93230000Y-121400000D02*
X107430000Y-121400000D01*
X107430000Y-107200000D02*
X93230000Y-107200000D01*
X107430000Y-121400000D02*
X107430000Y-107200000D01*
%TO.C,S3*%
X131330000Y-69100000D02*
X131330000Y-83300000D01*
X131330000Y-83300000D02*
X145530000Y-83300000D01*
X145530000Y-69100000D02*
X131330000Y-69100000D01*
X145530000Y-83300000D02*
X145530000Y-69100000D01*
%TO.C,S1*%
X93230000Y-69100000D02*
X93230000Y-83300000D01*
X93230000Y-83300000D02*
X107430000Y-83300000D01*
X107430000Y-69100000D02*
X93230000Y-69100000D01*
X107430000Y-83300000D02*
X107430000Y-69100000D01*
%TD*%
D14*
%TO.C,U1*%
X163830000Y-83661250D03*
D15*
X163830000Y-86201250D03*
X163830000Y-88741250D03*
X163830000Y-91281250D03*
X163830000Y-93821250D03*
X163830000Y-96361250D03*
X163830000Y-98901250D03*
X163830000Y-101441250D03*
X163830000Y-103981250D03*
X163830000Y-106521250D03*
X163830000Y-109061250D03*
X163830000Y-111601250D03*
X179070000Y-111601250D03*
X179070000Y-109061250D03*
X179070000Y-106521250D03*
X179070000Y-103981250D03*
X179070000Y-101441250D03*
X179070000Y-98901250D03*
X179070000Y-96361250D03*
X179070000Y-93821250D03*
X179070000Y-91281250D03*
X179070000Y-88741250D03*
X179070000Y-86201250D03*
X179070000Y-83661250D03*
%TD*%
M02*
